{
copyright = "Copyright (c) 2011 by Just Be Nice studio. All rights reserved.";
customParameters = (
{
name = glyphOrder;
value = "(\012    \".notdef\",\012    uni0000,\012    uni000D,\012    space,\012    exclam,\012    numbersign,\012    percent,\012    ampersand,\012    quotesingle,\012    parenleft,\012    parenright,\012    asterisk,\012    plus,\012    comma,\012    hyphen,\012    period,\012    slash,\012    zero,\012    one,\012    two,\012    three,\012    four,\012    five,\012    six,\012    seven,\012    colon,\012    semicolon,\012    less,\012    greater,\012    question,\012    at,\012    A,\012    B,\012    C,\012    D,\012    F,\012    H,\012    I,\012    J,\012    K,\012    L,\012    M,\012    N,\012    O,\012    P,\012    Q,\012    R,\012    S,\012    T,\012    U,\012    V,\012    W,\012    X,\012    Z,\012    bracketleft,\012    backslash,\012    bracketright,\012    underscore,\012    grave,\012    a,\012    b,\012    c,\012    d,\012    e,\012    f,\012    g,\012    h,\012    i,\012    j,\012    k,\012    l,\012    m,\012    n,\012    o,\012    p,\012    q,\012    r,\012    s,\012    t,\012    u,\012    v,\012    w,\012    x,\012    y,\012    z,\012    braceleft,\012    braceright,\012    asciitilde,\012    uni00B2,\012    uni00B3,\012    uni00B9,\012    multiply,\012    uniE000\012)";
}
);
date = "2012-02-15 21:33:43 +0000";
familyName = "Web Symbols";
fontMaster = (
{
ascender = 801;
capHeight = 800;
customParameters = (
{
name = postscriptUnderlinePosition;
value = "-75";
}
);
descender = "-199";
id = "8EDAA7A7-1AFB-42B2-BF34-013D0EB3C3CC";
weightValue = 400;
widthValue = 5;
xHeight = 800;
}
);
glyphs = (
{
glyphname = A;
layers = (
{
layerId = "8EDAA7A7-1AFB-42B2-BF34-013D0EB3C3CC";
name = Regular;
paths = (
{
closed = 1;
nodes = (
"1113 418 OFFCURVE",
"1076 331 OFFCURVE",
"1013 268 CURVE SMOOTH",
"565 -176 LINE",
"503 -115 LINE",
"951 329 LINE SMOOTH",
"1000 377 OFFCURVE",
"1025 436 OFFCURVE",
"1025 507 CURVE SMOOTH",
"1025 626 OFFCURVE",
"938 713 OFFCURVE",
"819 713 CURVE SMOOTH",
"751 713 OFFCURVE",
"691 688 OFFCURVE",
"639 638 CURVE SMOOTH",
"146 149 LINE SMOOTH",
"107 110 OFFCURVE",
"87 65 OFFCURVE",
"87 16 CURVE SMOOTH",
"87 -60 OFFCURVE",
"142 -114 OFFCURVE",
"218 -114 CURVE SMOOTH",
"268 -114 OFFCURVE",
"313 -94 OFFCURVE",
"352 -55 CURVE SMOOTH",
"729 317 LINE SMOOTH",
"764 354 OFFCURVE",
"782 386 OFFCURVE",
"782 414 CURVE SMOOTH",
"782 442 OFFCURVE",
"757 459 OFFCURVE",
"728 459 CURVE SMOOTH",
"696 459 OFFCURVE",
"667 446 OFFCURVE",
"642 419 CURVE",
"302 83 LINE",
"241 144 LINE",
"580 480 LINE SMOOTH",
"624 524 OFFCURVE",
"673 546 OFFCURVE",
"728 546 CURVE SMOOTH",
"805 546 OFFCURVE",
"870 491 OFFCURVE",
"870 415 CURVE SMOOTH",
"870 363 OFFCURVE",
"844 310 OFFCURVE",
"791 256 CURVE SMOOTH",
"414 -116 LINE SMOOTH",
"358 -172 OFFCURVE",
"293 -200 OFFCURVE",
"218 -200 CURVE SMOOTH",
"94 -200 OFFCURVE",
"0 -108 OFFCURVE",
"0 16 CURVE SMOOTH",
"0 89 OFFCURVE",
"28 154 OFFCURVE",
"84 210 CURVE SMOOTH",
"577 699 LINE SMOOTH",
"646 766 OFFCURVE",
"727 800 OFFCURVE",
"819 800 CURVE SMOOTH",
"986 800 OFFCURVE",
"1113 674 OFFCURVE",
"1113 507 CURVE SMOOTH"
);
}
);
width = 1113;
}
);
unicode = 0041;
},
{
glyphname = B;
layers = (
{
layerId = "8EDAA7A7-1AFB-42B2-BF34-013D0EB3C3CC";
name = Regular;
paths = (
{
closed = 1;
nodes = (
"238 -11 OFFCURVE",
"250 -40 OFFCURVE",
"250 -75 CURVE SMOOTH",
"250 -144 OFFCURVE",
"194 -200 OFFCURVE",
"125 -200 CURVE SMOOTH",
"56 -200 OFFCURVE",
"0 -144 OFFCURVE",
"0 -75 CURVE SMOOTH",
"0 -6 OFFCURVE",
"56 50 OFFCURVE",
"125 50 CURVE SMOOTH",
"160 50 OFFCURVE",
"189 38 OFFCURVE",
"214 14 CURVE"
);
},
{
closed = 1;
nodes = (
"468 -200 LINE",
"468 59 OFFCURVE",
"259 268 OFFCURVE",
"0 268 CURVE",
"0 460 LINE",
"239 460 OFFCURVE",
"454 334 OFFCURVE",
"572 131 CURVE SMOOTH",
"631 30 OFFCURVE",
"660 -81 OFFCURVE",
"660 -200 CURVE"
);
},
{
closed = 1;
nodes = (
"807 -200 LINE",
"807 19 OFFCURVE",
"715 228 OFFCURVE",
"571 372 CURVE SMOOTH",
"427 516 OFFCURVE",
"219 608 OFFCURVE",
"0 608 CURVE",
"0 800 LINE",
"271 800 OFFCURVE",
"528 686 OFFCURVE",
"707 507 CURVE SMOOTH",
"886 328 OFFCURVE",
"1000 71 OFFCURVE",
"1000 -200 CURVE"
);
}
);
width = 1000;
}
);
unicode = 0042;
},
{
glyphname = C;
layers = (
{
layerId = "8EDAA7A7-1AFB-42B2-BF34-013D0EB3C3CC";
name = Regular;
paths = (
{
closed = 1;
nodes = (
"1435 -65 OFFCURVE",
"1321 -188 OFFCURVE",
"1174 -199 CURVE",
"1174 -200 LINE",
"304 -200 LINE",
"304 -199 LINE",
"299 -200 OFFCURVE",
"292 -200 OFFCURVE",
"283 -200 CURVE SMOOTH",
"127 -200 OFFCURVE",
"0 -73 OFFCURVE",
"0 83 CURVE SMOOTH",
"0 182 OFFCURVE",
"53 274 OFFCURVE",
"138 325 CURVE",
"133 346 OFFCURVE",
"130 367 OFFCURVE",
"130 387 CURVE SMOOTH",
"130 543 OFFCURVE",
"257 670 OFFCURVE",
"413 670 CURVE SMOOTH",
"482 670 OFFCURVE",
"544 647 OFFCURVE",
"599 600 CURVE",
"656 721 OFFCURVE",
"780 800 OFFCURVE",
"913 800 CURVE SMOOTH",
"1105 800 OFFCURVE",
"1261 644 OFFCURVE",
"1261 452 CURVE SMOOTH",
"1261 415 OFFCURVE",
"1256 381 OFFCURVE",
"1245 349 CURVE",
"1358 310 OFFCURVE",
"1435 202 OFFCURVE",
"1435 83 CURVE SMOOTH"
);
}
);
width = 1435;
}
);
unicode = 0043;
},
{
glyphname = D;
layers = (
{
layerId = "8EDAA7A7-1AFB-42B2-BF34-013D0EB3C3CC";
name = Regular;
paths = (
{
closed = 1;
nodes = (
"91 -108 LINE",
"727 -108 LINE",
"727 256 LINE",
"91 256 LINE"
);
},
{
closed = 1;
nodes = (
"818 256 LINE",
"1000 256 LINE",
"1000 619 LINE",
"364 619 LINE",
"364 437 LINE",
"818 437 LINE"
);
},
{
closed = 1;
nodes = (
"1091 801 LINE",
"1091 165 LINE",
"818 165 LINE",
"818 -199 LINE",
"0 -199 LINE",
"0 437 LINE",
"273 437 LINE",
"273 801 LINE"
);
}
);
width = 1091;
}
);
unicode = 0044;
},
{
glyphname = E;
layers = (
{
anchors = (
{
name = top;
position = "{351, 800}";
},
{
name = bottom;
position = "{351, 0}";
},
{
name = ogonek;
position = "{484, 10}";
}
);
layerId = "8EDAA7A7-1AFB-42B2-BF34-013D0EB3C3CC";
name = Regular;
paths = (
{
closed = 1;
nodes = (
"-247 521 OFFCURVE",
"-210 487 OFFCURVE",
"-169 459 CURVE SMOOTH",
"-127 430 OFFCURVE",
"-96 455 OFFCURVE",
"-64 487 CURVE SMOOTH",
"-39 513 OFFCURVE",
"-10 552 OFFCURVE",
"15 560 CURVE SMOOTH",
"44 570 OFFCURVE",
"99 523 OFFCURVE",
"130 502 CURVE SMOOTH",
"174 472 OFFCURVE",
"212 440 OFFCURVE",
"248 404 CURVE SMOOTH",
"284 369 OFFCURVE",
"316 330 OFFCURVE",
"345 287 CURVE SMOOTH",
"367 255 OFFCURVE",
"414 201 OFFCURVE",
"404 171 CURVE SMOOTH",
"396 146 OFFCURVE",
"356 117 OFFCURVE",
"331 92 CURVE SMOOTH",
"299 60 OFFCURVE",
"273 29 OFFCURVE",
"303 -13 CURVE SMOOTH",
"331 -53 OFFCURVE",
"365 -91 OFFCURVE",
"400 -125 CURVE SMOOTH",
"425 -150 OFFCURVE",
"459 -191 OFFCURVE",
"497 -191 CURVE SMOOTH",
"517 -191 OFFCURVE",
"537 -171 OFFCURVE",
"549 -157 CURVE SMOOTH",
"627 -65 OFFCURVE",
"667 54 OFFCURVE",
"649 149 CURVE SMOOTH",
"636 215 OFFCURVE",
"591 294 OFFCURVE",
"546 364 CURVE SMOOTH",
"503 428 OFFCURVE",
"451 492 OFFCURVE",
"393 549 CURVE SMOOTH",
"335 607 OFFCURVE",
"272 660 OFFCURVE",
"208 702 CURVE SMOOTH",
"138 747 OFFCURVE",
"59 792 OFFCURVE",
"-7 805 CURVE SMOOTH",
"-102 823 OFFCURVE",
"-221 783 OFFCURVE",
"-313 705 CURVE SMOOTH",
"-327 693 OFFCURVE",
"-347 673 OFFCURVE",
"-347 653 CURVE SMOOTH",
"-347 615 OFFCURVE",
"-306 581 OFFCURVE",
"-281 556 CURVE SMOOTH"
);
}
);
width = 333;
}
);
unicode = 0045;
},
{
glyphname = F;
layers = (
{
layerId = "8EDAA7A7-1AFB-42B2-BF34-013D0EB3C3CC";
name = Regular;
paths = (
{
closed = 1;
nodes = (
"1391 409 LINE",
"1323 -114 LINE SMOOTH",
"1316 -161 OFFCURVE",
"1273 -200 OFFCURVE",
"1225 -200 CURVE SMOOTH",
"167 -200 LINE SMOOTH",
"119 -200 OFFCURVE",
"73 -161 OFFCURVE",
"68 -114 CURVE SMOOTH",
"1 409 LINE",
"0 411 OFFCURVE",
"0 414 OFFCURVE",
"0 419 CURVE SMOOTH",
"0 463 OFFCURVE",
"34 495 OFFCURVE",
"78 495 CURVE SMOOTH",
"1313 495 LINE SMOOTH",
"1357 495 OFFCURVE",
"1391 463 OFFCURVE",
"1391 419 CURVE SMOOTH"
);
},
{
closed = 1;
nodes = (
"78 583 LINE",
"84 615 OFFCURVE",
"93 637 OFFCURVE",
"105 650 CURVE SMOOTH",
"117 663 OFFCURVE",
"129 668 OFFCURVE",
"140 667 CURVE",
"162 664 OFFCURVE",
"188 668 OFFCURVE",
"199 699 CURVE SMOOTH",
"223 771 LINE",
"274 790 OFFCURVE",
"344 800 OFFCURVE",
"431 800 CURVE SMOOTH",
"490 800 OFFCURVE",
"545 790 OFFCURVE",
"595 771 CURVE",
"620 699 LINE",
"652 668 OFFCURVE",
"649 670 OFFCURVE",
"696 670 CURVE SMOOTH",
"1181 670 LINE SMOOTH",
"1293 670 OFFCURVE",
"1300 655 OFFCURVE",
"1313 583 CURVE"
);
}
);
width = 1391;
}
);
unicode = 0046;
},
{
color = 4;
glyphname = G;
layers = (
{
anchors = (
{
name = top;
position = "{300, 800}";
},
{
name = bottom;
position = "{300, 0}";
}
);
layerId = "8EDAA7A7-1AFB-42B2-BF34-013D0EB3C3CC";
name = Regular;
paths = (
{
closed = 1;
nodes = (
"-56 77 LINE",
"-56 77 OFFCURVE",
"-57 64 OFFCURVE",
"-47 63 CURVE",
"-36 63 OFFCURVE",
"-37 73 OFFCURVE",
"-37 77 CURVE",
"-46 107 LINE"
);
},
{
closed = 1;
nodes = (
"731 555 OFFCURVE",
"696 608 OFFCURVE",
"648 653 CURVE SMOOTH",
"603 700 OFFCURVE",
"550 736 OFFCURVE",
"491 761 CURVE SMOOTH",
"428 786 OFFCURVE",
"363 800 OFFCURVE",
"296 800 CURVE SMOOTH",
"228 800 OFFCURVE",
"163 786 OFFCURVE",
"101 761 CURVE SMOOTH",
"42 736 OFFCURVE",
"-12 700 OFFCURVE",
"-57 653 CURVE SMOOTH",
"-102 608 OFFCURVE",
"-139 555 OFFCURVE",
"-164 494 CURVE SMOOTH",
"-189 433 OFFCURVE",
"-203 367 OFFCURVE",
"-203 301 CURVE SMOOTH",
"-203 233 OFFCURVE",
"-189 167 OFFCURVE",
"-164 106 CURVE SMOOTH",
"-139 47 OFFCURVE",
"-102 -7 OFFCURVE",
"-57 -53 CURVE SMOOTH",
"-12 -98 OFFCURVE",
"42 -135 OFFCURVE",
"101 -161 CURVE SMOOTH",
"163 -186 OFFCURVE",
"228 -198 OFFCURVE",
"296 -198 CURVE SMOOTH",
"363 -198 OFFCURVE",
"428 -186 OFFCURVE",
"491 -161 CURVE SMOOTH",
"550 -135 OFFCURVE",
"603 -98 OFFCURVE",
"648 -53 CURVE SMOOTH",
"696 -7 OFFCURVE",
"731 47 OFFCURVE",
"756 106 CURVE SMOOTH",
"781 167 OFFCURVE",
"795 233 OFFCURVE",
"795 301 CURVE SMOOTH",
"795 367 OFFCURVE",
"781 433 OFFCURVE",
"756 494 CURVE SMOOTH"
);
},
{
closed = 1;
nodes = (
"553 763 OFFCURVE",
"760 557 OFFCURVE",
"760 301 CURVE SMOOTH",
"760 287 OFFCURVE",
"760 272 OFFCURVE",
"757 258 CURVE",
"706 262 OFFCURVE",
"657 262 OFFCURVE",
"623 259 CURVE",
"632 293 OFFCURVE",
"635 332 OFFCURVE",
"635 376 CURVE SMOOTH",
"635 438 OFFCURVE",
"612 488 OFFCURVE",
"573 526 CURVE",
"580 547 OFFCURVE",
"590 595 OFFCURVE",
"565 656 CURVE",
"565 656 OFFCURVE",
"522 670 OFFCURVE",
"425 605 CURVE",
"387 615 OFFCURVE",
"346 618 OFFCURVE",
"306 618 CURVE SMOOTH",
"262 618 OFFCURVE",
"217 613 OFFCURVE",
"174 601 CURVE",
"74 670 OFFCURVE",
"31 656 OFFCURVE",
"31 656 CURVE",
"2 585 OFFCURVE",
"18 531 OFFCURVE",
"23 517 CURVE",
"-11 479 OFFCURVE",
"-31 433 OFFCURVE",
"-31 376 CURVE SMOOTH",
"-31 332 OFFCURVE",
"-26 293 OFFCURVE",
"-13 259 CURVE",
"-52 262 OFFCURVE",
"-108 262 OFFCURVE",
"-167 257 CURVE",
"-167 269 OFFCURVE",
"-168 286 OFFCURVE",
"-168 301 CURVE SMOOTH",
"-168 557 OFFCURVE",
"41 763 OFFCURVE",
"296 763 CURVE SMOOTH"
);
},
{
closed = 1;
nodes = (
"756 243 OFFCURVE",
"755 233 OFFCURVE",
"755 224 CURVE",
"698 232 OFFCURVE",
"648 234 OFFCURVE",
"615 237 CURVE",
"617 243 OFFCURVE",
"620 249 OFFCURVE",
"622 257 CURVE",
"656 257 OFFCURVE",
"703 258 OFFCURVE",
"757 253 CURVE"
);
},
{
closed = 1;
nodes = (
"392 -153 OFFCURVE",
"383 -156 OFFCURVE",
"376 -157 CURVE",
"371 -142 OFFCURVE",
"371 -128 OFFCURVE",
"371 -128 CURVE",
"371 39 LINE",
"392 24 OFFCURVE",
"388 -14 OFFCURVE",
"388 -14 CURVE",
"388 -117 LINE SMOOTH",
"388 -132 OFFCURVE",
"393 -143 OFFCURVE",
"398 -152 CURVE"
);
},
{
closed = 1;
nodes = (
"243 -128 OFFCURVE",
"243 -143 OFFCURVE",
"237 -161 CURVE",
"228 -158 OFFCURVE",
"222 -157 OFFCURVE",
"213 -157 CURVE",
"221 -147 OFFCURVE",
"227 -135 OFFCURVE",
"227 -117 CURVE SMOOTH",
"227 -14 LINE",
"227 -14 OFFCURVE",
"223 27 OFFCURVE",
"243 42 CURVE",
"243 -128 LINE"
);
},
{
closed = 1;
nodes = (
"-42 234 OFFCURVE",
"-99 232 OFFCURVE",
"-162 219 CURVE",
"-163 232 OFFCURVE",
"-164 242 OFFCURVE",
"-164 252 CURVE",
"-106 258 OFFCURVE",
"-51 258 OFFCURVE",
"-12 257 CURVE",
"-8 249 OFFCURVE",
"-7 243 OFFCURVE",
"-3 237 CURVE"
);
},
{
closed = 1;
nodes = (
"-97 226 OFFCURVE",
"-38 232 OFFCURVE",
"-1 232 CURVE",
"33 169 OFFCURVE",
"99 127 OFFCURVE",
"218 116 CURVE",
"202 103 OFFCURVE",
"184 86 OFFCURVE",
"178 52 CURVE",
"154 42 OFFCURVE",
"82 14 OFFCURVE",
"38 88 CURVE",
"38 88 OFFCURVE",
"13 134 OFFCURVE",
"-33 137 CURVE",
"-33 137 OFFCURVE",
"-77 137 OFFCURVE",
"-36 108 CURVE",
"-36 108 OFFCURVE",
"-7 96 OFFCURVE",
"16 42 CURVE",
"16 42 OFFCURVE",
"43 -51 OFFCURVE",
"173 -21 CURVE",
"173 -115 LINE",
"173 -115 OFFCURVE",
"172 -130 OFFCURVE",
"161 -143 CURVE",
"-3 -95 OFFCURVE",
"-129 44 OFFCURVE",
"-159 216 CURVE"
);
},
{
closed = 1;
nodes = (
"167 28 OFFCURVE",
"161 24 OFFCURVE",
"156 24 CURVE SMOOTH",
"151 24 OFFCURVE",
"148 28 OFFCURVE",
"148 32 CURVE SMOOTH",
"148 34 OFFCURVE",
"151 37 OFFCURVE",
"156 37 CURVE SMOOTH",
"161 37 OFFCURVE",
"167 34 OFFCURVE",
"167 32 CURVE SMOOTH"
);
},
{
closed = 1;
nodes = (
"136 23 OFFCURVE",
"133 19 OFFCURVE",
"128 19 CURVE SMOOTH",
"123 19 OFFCURVE",
"118 23 OFFCURVE",
"118 27 CURVE SMOOTH",
"118 29 OFFCURVE",
"123 32 OFFCURVE",
"128 32 CURVE SMOOTH",
"133 32 OFFCURVE",
"136 29 OFFCURVE",
"136 27 CURVE SMOOTH"
);
},
{
closed = 1;
nodes = (
"107 23 OFFCURVE",
"102 19 OFFCURVE",
"97 19 CURVE SMOOTH",
"92 19 OFFCURVE",
"89 23 OFFCURVE",
"89 27 CURVE SMOOTH",
"89 29 OFFCURVE",
"92 32 OFFCURVE",
"97 32 CURVE SMOOTH",
"102 32 OFFCURVE",
"107 29 OFFCURVE",
"107 27 CURVE SMOOTH"
);
},
{
closed = 1;
nodes = (
"77 33 OFFCURVE",
"74 32 OFFCURVE",
"69 32 CURVE SMOOTH",
"64 32 OFFCURVE",
"61 33 OFFCURVE",
"61 37 CURVE SMOOTH",
"61 39 OFFCURVE",
"64 43 OFFCURVE",
"69 43 CURVE SMOOTH",
"74 43 OFFCURVE",
"77 39 OFFCURVE",
"77 37 CURVE SMOOTH"
);
},
{
closed = 1;
nodes = (
"23 101 OFFCURVE",
"28 97 OFFCURVE",
"28 93 CURVE SMOOTH",
"28 91 OFFCURVE",
"23 88 OFFCURVE",
"18 88 CURVE SMOOTH",
"13 88 OFFCURVE",
"11 91 OFFCURVE",
"11 93 CURVE SMOOTH",
"11 97 OFFCURVE",
"13 101 OFFCURVE",
"18 101 CURVE SMOOTH"
);
},
{
closed = 1;
nodes = (
"-2 106 OFFCURVE",
"-6 108 OFFCURVE",
"-6 112 CURVE SMOOTH",
"-6 116 OFFCURVE",
"-2 118 OFFCURVE",
"3 118 CURVE SMOOTH",
"8 118 OFFCURVE",
"12 116 OFFCURVE",
"12 112 CURVE SMOOTH",
"12 108 OFFCURVE",
"8 106 OFFCURVE",
"3 106 CURVE SMOOTH"
);
},
{
closed = 1;
nodes = (
"37 81 OFFCURVE",
"42 77 OFFCURVE",
"42 73 CURVE SMOOTH",
"42 71 OFFCURVE",
"37 67 OFFCURVE",
"32 67 CURVE SMOOTH",
"27 67 OFFCURVE",
"23 71 OFFCURVE",
"23 73 CURVE SMOOTH",
"23 77 OFFCURVE",
"27 81 OFFCURVE",
"32 81 CURVE SMOOTH"
);
},
{
closed = 1;
nodes = (
"53 59 OFFCURVE",
"57 57 OFFCURVE",
"57 53 CURVE SMOOTH",
"57 49 OFFCURVE",
"53 48 OFFCURVE",
"48 48 CURVE SMOOTH",
"43 48 OFFCURVE",
"38 49 OFFCURVE",
"38 53 CURVE SMOOTH",
"38 57 OFFCURVE",
"43 59 OFFCURVE",
"48 59 CURVE SMOOTH"
);
},
{
closed = 1;
nodes = (
"-13 122 OFFCURVE",
"-17 121 OFFCURVE",
"-22 121 CURVE SMOOTH",
"-27 121 OFFCURVE",
"-31 122 OFFCURVE",
"-31 126 CURVE SMOOTH",
"-31 129 OFFCURVE",
"-27 132 OFFCURVE",
"-22 132 CURVE SMOOTH",
"-17 132 OFFCURVE",
"-13 129 OFFCURVE",
"-13 126 CURVE SMOOTH"
);
},
{
closed = 1;
nodes = (
"296 -153 OFFCURVE",
"300 -142 OFFCURVE",
"300 -127 CURVE SMOOTH",
"301 44 LINE",
"315 44 LINE",
"316 -127 LINE SMOOTH",
"317 -140 OFFCURVE",
"321 -153 OFFCURVE",
"325 -162 CURVE",
"316 -163 OFFCURVE",
"306 -163 OFFCURVE",
"296 -163 CURVE SMOOTH",
"295 -163 OFFCURVE",
"292 -163 OFFCURVE",
"291 -163 CURVE"
);
},
{
closed = 1;
nodes = (
"442 -127 OFFCURVE",
"442 -115 OFFCURVE",
"442 -115 CURVE",
"442 19 LINE SMOOTH",
"442 72 OFFCURVE",
"420 101 OFFCURVE",
"398 116 CURVE",
"525 127 OFFCURVE",
"585 169 OFFCURVE",
"613 232 CURVE",
"647 232 OFFCURVE",
"697 228 OFFCURVE",
"752 219 CURVE",
"725 53 OFFCURVE",
"605 -83 OFFCURVE",
"448 -138 CURVE"
);
}
);
width = 600;
}
);
unicode = 0047;
},
{
glyphname = H;
layers = (
{
layerId = "8EDAA7A7-1AFB-42B2-BF34-013D0EB3C3CC";
name = Regular;
paths = (
{
closed = 1;
nodes = (
"308 300 LINE",
"654 -46 LINE",
"500 -200 LINE",
"0 300 LINE",
"500 800 LINE",
"654 646 LINE"
);
},
{
closed = 1;
nodes = (
"1000 800 LINE",
"1500 300 LINE",
"1000 -200 LINE",
"846 -46 LINE",
"1192 300 LINE",
"846 646 LINE"
);
}
);
width = 1500;
}
);
unicode = 0048;
},
{
glyphname = I;
layers = (
{
layerId = "8EDAA7A7-1AFB-42B2-BF34-013D0EB3C3CC";
name = Regular;
paths = (
{
closed = 1;
nodes = (
"1166 6 OFFCURVE",
"1164 0 OFFCURVE",
"1160 0 CURVE SMOOTH",
"205 0 LINE",
"204 0 LINE SMOOTH",
"201 0 OFFCURVE",
"200 1 OFFCURVE",
"200 4 CURVE SMOOTH",
"200 6 LINE",
"212 30 OFFCURVE",
"257 123 OFFCURVE",
"335 286 CURVE SMOOTH",
"413 449 OFFCURVE",
"461 548 OFFCURVE",
"479 585 CURVE",
"480 588 OFFCURVE",
"485 589 OFFCURVE",
"486 586 CURVE",
"797 200 LINE",
"949 322 LINE",
"956 322 LINE",
"957 320 LINE",
"983 287 OFFCURVE",
"1017 235 OFFCURVE",
"1059 165 CURVE SMOOTH",
"1100 95 OFFCURVE",
"1135 42 OFFCURVE",
"1163 7 CURVE"
);
},
{
closed = 1;
nodes = (
"1112 521 OFFCURVE",
"1120 502 OFFCURVE",
"1120 480 CURVE SMOOTH",
"1120 436 OFFCURVE",
"1084 400 OFFCURVE",
"1040 400 CURVE SMOOTH",
"996 400 OFFCURVE",
"960 436 OFFCURVE",
"960 480 CURVE SMOOTH",
"960 524 OFFCURVE",
"996 560 OFFCURVE",
"1040 560 CURVE SMOOTH",
"1062 560 OFFCURVE",
"1081 552 OFFCURVE",
"1097 537 CURVE"
);
},
{
closed = 1;
nodes = (
"120 -80 LINE",
"1240 -80 LINE",
"1240 680 LINE",
"120 680 LINE"
);
},
{
closed = 1;
nodes = (
"1360 800 LINE",
"1360 -200 LINE",
"0 -200 LINE",
"0 800 LINE"
);
}
);
width = 1360;
}
);
unicode = 0049;
},
{
glyphname = J;
layers = (
{
layerId = "8EDAA7A7-1AFB-42B2-BF34-013D0EB3C3CC";
name = Regular;
paths = (
{
closed = 1;
nodes = (
"760 120 LINE",
"877 0 LINE",
"241 0 LINE",
"240 360 LINE",
"0 360 LINE",
"300 680 LINE",
"600 360 LINE",
"360 360 LINE",
"360 120 LINE"
);
},
{
closed = 1;
nodes = (
"1120 320 LINE",
"1360 320 LINE",
"1060 0 LINE",
"760 320 LINE",
"1000 320 LINE",
"1000 560 LINE",
"600 560 LINE",
"483 680 LINE",
"1119 680 LINE"
);
}
);
width = 1360;
}
);
unicode = 004A;
},
{
glyphname = K;
layers = (
{
layerId = "8EDAA7A7-1AFB-42B2-BF34-013D0EB3C3CC";
name = Regular;
paths = (
{
closed = 1;
nodes = (
"498 330 LINE",
"481 341 OFFCURVE",
"462 347 OFFCURVE",
"442 347 CURVE SMOOTH",
"413 347 OFFCURVE",
"388 337 OFFCURVE",
"367 316 CURVE SMOOTH",
"192 140 LINE",
"171 121 OFFCURVE",
"161 96 OFFCURVE",
"161 66 CURVE SMOOTH",
"161 7 OFFCURVE",
"207 -39 OFFCURVE",
"266 -39 CURVE SMOOTH",
"299 -39 OFFCURVE",
"337 -22 OFFCURVE",
"348 7 CURVE",
"586 7 LINE",
"454 -122 LINE SMOOTH",
"401 -174 OFFCURVE",
"338 -200 OFFCURVE",
"266 -200 CURVE SMOOTH",
"119 -200 OFFCURVE",
"0 -81 OFFCURVE",
"0 66 CURVE SMOOTH",
"0 141 OFFCURVE",
"26 203 OFFCURVE",
"78 254 CURVE SMOOTH",
"253 430 LINE SMOOTH",
"305 482 OFFCURVE",
"368 508 OFFCURVE",
"442 508 CURVE SMOOTH",
"507 508 OFFCURVE",
"564 487 OFFCURVE",
"613 445 CURVE"
);
},
{
closed = 1;
nodes = (
"1000 459 OFFCURVE",
"974 397 OFFCURVE",
"922 346 CURVE SMOOTH",
"747 170 LINE SMOOTH",
"695 118 OFFCURVE",
"632 92 OFFCURVE",
"558 92 CURVE SMOOTH",
"493 92 OFFCURVE",
"436 113 OFFCURVE",
"387 155 CURVE",
"502 270 LINE",
"519 259 OFFCURVE",
"538 253 OFFCURVE",
"558 253 CURVE SMOOTH",
"587 253 OFFCURVE",
"612 263 OFFCURVE",
"633 284 CURVE SMOOTH",
"808 460 LINE",
"829 479 OFFCURVE",
"839 504 OFFCURVE",
"839 534 CURVE SMOOTH",
"839 593 OFFCURVE",
"793 639 OFFCURVE",
"734 639 CURVE SMOOTH",
"701 639 OFFCURVE",
"663 622 OFFCURVE",
"652 593 CURVE",
"414 593 LINE",
"546 722 LINE SMOOTH",
"599 774 OFFCURVE",
"662 800 OFFCURVE",
"734 800 CURVE SMOOTH",
"881 800 OFFCURVE",
"1000 681 OFFCURVE",
"1000 534 CURVE SMOOTH"
);
}
);
width = 1000;
}
);
unicode = 004B;
},
{
glyphname = L;
layers = (
{
layerId = "8EDAA7A7-1AFB-42B2-BF34-013D0EB3C3CC";
name = Regular;
paths = (
{
closed = 1;
nodes = (
"540 225 OFFCURVE",
"522 210 OFFCURVE",
"503 197 CURVE",
"815 -169 LINE",
"857 -210 OFFCURVE",
"925 -210 OFFCURVE",
"967 -168 CURVE SMOOTH",
"1009 -127 OFFCURVE",
"1009 -59 OFFCURVE",
"968 -17 CURVE",
"601 296 LINE",
"588 277 OFFCURVE",
"574 259 OFFCURVE",
"557 242 CURVE SMOOTH"
);
},
{
closed = 1;
nodes = (
"640 397 OFFCURVE",
"640 591 OFFCURVE",
"521 710 CURVE SMOOTH",
"401 830 OFFCURVE",
"207 830 OFFCURVE",
"88 710 CURVE SMOOTH",
"-32 591 OFFCURVE",
"-32 397 OFFCURVE",
"88 278 CURVE SMOOTH",
"207 158 OFFCURVE",
"401 158 OFFCURVE",
"521 278 CURVE SMOOTH"
);
},
{
closed = 1;
nodes = (
"235 734 OFFCURVE",
"374 734 OFFCURVE",
"459 649 CURVE SMOOTH",
"545 563 OFFCURVE",
"545 425 OFFCURVE",
"459 339 CURVE SMOOTH",
"374 254 OFFCURVE",
"235 254 OFFCURVE",
"150 339 CURVE SMOOTH",
"64 425 OFFCURVE",
"64 563 OFFCURVE",
"150 649 CURVE SMOOTH"
);
}
);
width = 1000;
}
);
unicode = 004C;
},
{
glyphname = M;
layers = (
{
layerId = "8EDAA7A7-1AFB-42B2-BF34-013D0EB3C3CC";
name = Regular;
paths = (
{
closed = 1;
nodes = (
"80 -120 LINE",
"200 -120 LINE",
"200 -40 LINE",
"80 -40 LINE"
);
},
{
closed = 1;
nodes = (
"280 -120 LINE",
"400 -120 LINE",
"400 -40 LINE",
"280 -40 LINE"
);
},
{
closed = 1;
nodes = (
"520 -120 LINE",
"640 -120 LINE",
"640 -40 LINE",
"520 -40 LINE"
);
},
{
closed = 1;
nodes = (
"80 40 LINE",
"400 40 LINE",
"400 560 LINE",
"80 560 LINE"
);
},
{
closed = 1;
nodes = (
"720 -120 LINE",
"840 -120 LINE",
"840 -40 LINE",
"720 -40 LINE"
);
},
{
closed = 1;
nodes = (
"80 640 LINE",
"200 640 LINE",
"200 720 LINE",
"80 720 LINE"
);
},
{
closed = 1;
nodes = (
"960 -120 LINE",
"1080 -120 LINE",
"1080 -40 LINE",
"960 -40 LINE"
);
},
{
closed = 1;
nodes = (
"520 40 LINE",
"840 40 LINE",
"840 560 LINE",
"520 560 LINE"
);
},
{
closed = 1;
nodes = (
"280 640 LINE",
"400 640 LINE",
"400 720 LINE",
"280 720 LINE"
);
},
{
closed = 1;
nodes = (
"1160 -120 LINE",
"1280 -120 LINE",
"1280 -40 LINE",
"1160 -40 LINE"
);
},
{
closed = 1;
nodes = (
"520 640 LINE",
"640 640 LINE",
"640 720 LINE",
"520 720 LINE"
);
},
{
closed = 1;
nodes = (
"960 40 LINE",
"1280 40 LINE",
"1280 560 LINE",
"960 560 LINE"
);
},
{
closed = 1;
nodes = (
"720 640 LINE",
"840 640 LINE",
"840 720 LINE",
"720 720 LINE"
);
},
{
closed = 1;
nodes = (
"960 640 LINE",
"1080 640 LINE",
"1080 720 LINE",
"960 720 LINE"
);
},
{
closed = 1;
nodes = (
"1160 640 LINE",
"1280 640 LINE",
"1280 720 LINE",
"1160 720 LINE"
);
},
{
closed = 1;
nodes = (
"1360 800 LINE",
"1360 -200 LINE",
"0 -200 LINE",
"0 800 LINE"
);
}
);
width = 1360;
}
);
unicode = 004D;
},
{
glyphname = N;
layers = (
{
layerId = "8EDAA7A7-1AFB-42B2-BF34-013D0EB3C3CC";
name = Regular;
paths = (
{
closed = 1;
nodes = (
"675 802 OFFCURVE",
"527 653 OFFCURVE",
"527 504 CURVE",
"527 653 OFFCURVE",
"374 802 OFFCURVE",
"225 802 CURVE SMOOTH",
"76 802 OFFCURVE",
"-72 653 OFFCURVE",
"-72 504 CURVE SMOOTH",
"-72 277 OFFCURVE",
"186 19 OFFCURVE",
"527 -203 CURVE",
"861 19 OFFCURVE",
"1125 277 OFFCURVE",
"1125 504 CURVE SMOOTH",
"1125 653 OFFCURVE",
"969 802 OFFCURVE",
"823 802 CURVE SMOOTH"
);
}
);
width = 1063;
}
);
unicode = 004E;
},
{
glyphname = O;
layers = (
{
layerId = "8EDAA7A7-1AFB-42B2-BF34-013D0EB3C3CC";
name = Regular;
paths = (
{
closed = 1;
nodes = (
"918 734 OFFCURVE",
"1030 622 OFFCURVE",
"1030 484 CURVE SMOOTH",
"1030 281 OFFCURVE",
"821 81 OFFCURVE",
"530 -125 CURVE",
"238 81 OFFCURVE",
"30 281 OFFCURVE",
"30 484 CURVE SMOOTH",
"30 622 OFFCURVE",
"142 734 OFFCURVE",
"280 734 CURVE SMOOTH",
"418 734 OFFCURVE",
"530 622 OFFCURVE",
"530 484 CURVE",
"530 622 OFFCURVE",
"642 734 OFFCURVE",
"780 734 CURVE"
);
},
{
closed = 1;
nodes = (
"739 784 OFFCURVE",
"700 776 OFFCURVE",
"663 760 CURVE SMOOTH",
"627 745 OFFCURVE",
"595 724 OFFCURVE",
"567 696 CURVE SMOOTH",
"553 682 OFFCURVE",
"541 666 OFFCURVE",
"530 650 CURVE",
"519 666 OFFCURVE",
"506 682 OFFCURVE",
"492 696 CURVE SMOOTH",
"464 724 OFFCURVE",
"432 745 OFFCURVE",
"396 760 CURVE SMOOTH",
"359 776 OFFCURVE",
"320 784 OFFCURVE",
"280 784 CURVE SMOOTH",
"239 784 OFFCURVE",
"200 776 OFFCURVE",
"163 760 CURVE SMOOTH",
"127 745 OFFCURVE",
"95 724 OFFCURVE",
"67 696 CURVE SMOOTH",
"40 669 OFFCURVE",
"18 636 OFFCURVE",
"3 601 CURVE SMOOTH",
"-12 564 OFFCURVE",
"-20 524 OFFCURVE",
"-20 484 CURVE SMOOTH",
"-20 427 OFFCURVE",
"-6 369 OFFCURVE",
"22 311 CURVE SMOOTH",
"47 257 OFFCURVE",
"84 204 OFFCURVE",
"133 148 CURVE SMOOTH",
"177 97 OFFCURVE",
"231 46 OFFCURVE",
"296 -10 CURVE SMOOTH",
"355 -59 OFFCURVE",
"422 -110 OFFCURVE",
"501 -166 CURVE SMOOTH",
"509 -172 OFFCURVE",
"519 -175 OFFCURVE",
"530 -175 CURVE SMOOTH",
"540 -175 OFFCURVE",
"550 -172 OFFCURVE",
"558 -166 CURVE SMOOTH",
"638 -110 OFFCURVE",
"704 -59 OFFCURVE",
"763 -10 CURVE SMOOTH",
"828 46 OFFCURVE",
"882 97 OFFCURVE",
"926 148 CURVE SMOOTH",
"976 204 OFFCURVE",
"1012 257 OFFCURVE",
"1038 311 CURVE SMOOTH",
"1065 369 OFFCURVE",
"1080 427 OFFCURVE",
"1080 484 CURVE SMOOTH",
"1080 524 OFFCURVE",
"1072 564 OFFCURVE",
"1056 601 CURVE SMOOTH",
"1041 636 OFFCURVE",
"1019 669 OFFCURVE",
"992 696 CURVE SMOOTH",
"964 724 OFFCURVE",
"932 745 OFFCURVE",
"896 760 CURVE SMOOTH",
"859 776 OFFCURVE",
"820 784 OFFCURVE",
"780 784 CURVE SMOOTH"
);
}
);
width = 1063;
}
);
unicode = 004F;
},
{
glyphname = P;
layers = (
{
layerId = "8EDAA7A7-1AFB-42B2-BF34-013D0EB3C3CC";
name = Regular;
paths = (
{
closed = 1;
nodes = (
"680 67 OFFCURVE",
"653 40 OFFCURVE",
"620 40 CURVE SMOOTH",
"603 40 OFFCURVE",
"589 46 OFFCURVE",
"578 58 CURVE",
"458 178 LINE SMOOTH",
"446 190 OFFCURVE",
"440 211 OFFCURVE",
"440 240 CURVE SMOOTH",
"440 560 LINE SMOOTH",
"440 593 OFFCURVE",
"467 620 OFFCURVE",
"500 620 CURVE SMOOTH",
"533 620 OFFCURVE",
"560 593 OFFCURVE",
"560 560 CURVE SMOOTH",
"560 245 LINE",
"662 142 LINE",
"674 131 OFFCURVE",
"680 117 OFFCURVE",
"680 100 CURVE SMOOTH"
);
},
{
closed = 1;
nodes = (
"883 511 OFFCURVE",
"711 683 OFFCURVE",
"500 683 CURVE SMOOTH",
"416 683 OFFCURVE",
"341 658 OFFCURVE",
"274 609 CURVE",
"276 607 LINE",
"244 584 OFFCURVE",
"216 556 OFFCURVE",
"193 524 CURVE",
"191 526 LINE",
"142 459 OFFCURVE",
"117 384 OFFCURVE",
"117 300 CURVE SMOOTH",
"117 89 OFFCURVE",
"289 -83 OFFCURVE",
"500 -83 CURVE SMOOTH",
"584 -83 OFFCURVE",
"659 -58 OFFCURVE",
"726 -9 CURVE",
"724 -7 LINE",
"756 16 OFFCURVE",
"784 44 OFFCURVE",
"807 76 CURVE",
"809 74 LINE",
"858 141 OFFCURVE",
"883 216 OFFCURVE",
"883 300 CURVE SMOOTH"
);
},
{
closed = 1;
nodes = (
"978 474 OFFCURVE",
"1000 391 OFFCURVE",
"1000 300 CURVE SMOOTH",
"1000 119 OFFCURVE",
"904 -44 OFFCURVE",
"751 -133 CURVE SMOOTH",
"674 -178 OFFCURVE",
"591 -200 OFFCURVE",
"500 -200 CURVE SMOOTH",
"319 -200 OFFCURVE",
"156 -104 OFFCURVE",
"67 49 CURVE SMOOTH",
"22 126 OFFCURVE",
"0 209 OFFCURVE",
"0 300 CURVE SMOOTH",
"0 481 OFFCURVE",
"96 644 OFFCURVE",
"249 733 CURVE SMOOTH",
"326 778 OFFCURVE",
"409 800 OFFCURVE",
"500 800 CURVE SMOOTH",
"681 800 OFFCURVE",
"844 704 OFFCURVE",
"933 551 CURVE SMOOTH"
);
}
);
width = 1000;
}
);
unicode = 0050;
},
{
glyphname = Q;
layers = (
{
layerId = "8EDAA7A7-1AFB-42B2-BF34-013D0EB3C3CC";
name = Regular;
paths = (
{
closed = 1;
nodes = (
"577 541 OFFCURVE",
"585 520 OFFCURVE",
"585 496 CURVE SMOOTH",
"585 448 OFFCURVE",
"548 408 OFFCURVE",
"500 408 CURVE SMOOTH",
"452 408 OFFCURVE",
"415 448 OFFCURVE",
"415 496 CURVE SMOOTH",
"415 544 OFFCURVE",
"452 584 OFFCURVE",
"500 584 CURVE SMOOTH",
"524 584 OFFCURVE",
"544 575 OFFCURVE",
"561 558 CURVE SMOOTH"
);
},
{
closed = 1;
nodes = (
"727 252 OFFCURVE",
"700 280 OFFCURVE",
"667 280 CURVE SMOOTH",
"657 280 OFFCURVE",
"648 277 OFFCURVE",
"639 272 CURVE",
"592 248 OFFCURVE",
"546 236 OFFCURVE",
"499 236 CURVE SMOOTH",
"453 236 OFFCURVE",
"407 248 OFFCURVE",
"361 272 CURVE",
"350 277 OFFCURVE",
"341 279 OFFCURVE",
"333 279 CURVE SMOOTH",
"300 279 OFFCURVE",
"273 251 OFFCURVE",
"273 216 CURVE SMOOTH",
"273 171 OFFCURVE",
"322 138 OFFCURVE",
"420 119 CURVE",
"303 -2 LINE SMOOTH",
"291 -14 OFFCURVE",
"285 -29 OFFCURVE",
"285 -46 CURVE SMOOTH",
"285 -81 OFFCURVE",
"312 -109 OFFCURVE",
"345 -109 CURVE SMOOTH",
"362 -109 OFFCURVE",
"376 -103 OFFCURVE",
"388 -91 CURVE SMOOTH",
"500 25 LINE",
"612 -91 LINE SMOOTH",
"624 -103 OFFCURVE",
"638 -109 OFFCURVE",
"655 -109 CURVE SMOOTH",
"688 -109 OFFCURVE",
"715 -81 OFFCURVE",
"715 -46 CURVE SMOOTH",
"715 -29 OFFCURVE",
"709 -14 OFFCURVE",
"697 -2 CURVE SMOOTH",
"580 119 LINE",
"678 139 OFFCURVE",
"727 172 OFFCURVE",
"727 217 CURVE SMOOTH"
);
},
{
closed = 1;
nodes = (
"685 388 OFFCURVE",
"705 438 OFFCURVE",
"705 496 CURVE SMOOTH",
"705 612 OFFCURVE",
"616 709 OFFCURVE",
"500 709 CURVE SMOOTH",
"384 709 OFFCURVE",
"295 612 OFFCURVE",
"295 496 CURVE SMOOTH",
"295 380 OFFCURVE",
"384 283 OFFCURVE",
"500 283 CURVE SMOOTH",
"558 283 OFFCURVE",
"607 304 OFFCURVE",
"646 346 CURVE SMOOTH"
);
},
{
closed = 1;
nodes = (
"1000 -112 LINE SMOOTH",
"1000 -160 OFFCURVE",
"960 -200 OFFCURVE",
"912 -200 CURVE SMOOTH",
"88 -200 LINE SMOOTH",
"40 -200 OFFCURVE",
"0 -160 OFFCURVE",
"0 -112 CURVE SMOOTH",
"0 712 LINE SMOOTH",
"0 760 OFFCURVE",
"40 800 OFFCURVE",
"88 800 CURVE SMOOTH",
"912 800 LINE SMOOTH",
"960 800 OFFCURVE",
"1000 760 OFFCURVE",
"1000 712 CURVE SMOOTH"
);
}
);
width = 1000;
}
);
unicode = 0051;
},
{
glyphname = R;
layers = (
{
layerId = "8EDAA7A7-1AFB-42B2-BF34-013D0EB3C3CC";
name = Regular;
paths = (
{
closed = 1;
nodes = (
"224 -187 OFFCURVE",
"196 -166 OFFCURVE",
"204 -118 CURVE SMOOTH",
"238 80 LINE SMOOTH",
"246 129 OFFCURVE",
"224 196 OFFCURVE",
"189 230 CURVE SMOOTH",
"45 371 LINE SMOOTH",
"10 405 OFFCURVE",
"21 439 OFFCURVE",
"70 446 CURVE SMOOTH",
"268 475 LINE SMOOTH",
"317 482 OFFCURVE",
"374 523 OFFCURVE",
"396 567 CURVE SMOOTH",
"485 748 LINE SMOOTH",
"507 792 OFFCURVE",
"542 792 OFFCURVE",
"564 748 CURVE SMOOTH",
"653 567 LINE SMOOTH",
"675 524 OFFCURVE",
"732 482 OFFCURVE",
"781 475 CURVE SMOOTH",
"980 446 LINE SMOOTH",
"1028 439 OFFCURVE",
"1039 405 OFFCURVE",
"1004 371 CURVE SMOOTH",
"860 230 LINE SMOOTH",
"825 196 OFFCURVE",
"803 129 OFFCURVE",
"811 80 CURVE SMOOTH",
"845 -118 LINE SMOOTH",
"854 -166 OFFCURVE",
"825 -187 OFFCURVE",
"781 -164 CURVE SMOOTH",
"603 -71 LINE SMOOTH",
"560 -48 OFFCURVE",
"489 -48 OFFCURVE",
"446 -71 CURVE SMOOTH",
"268 -164 LINE SMOOTH"
);
}
);
width = 1050;
}
);
unicode = 0052;
},
{
glyphname = S;
layers = (
{
layerId = "8EDAA7A7-1AFB-42B2-BF34-013D0EB3C3CC";
name = Regular;
paths = (
{
closed = 1;
nodes = (
"990 227 OFFCURVE",
"999 236 OFFCURVE",
"999 247 CURVE SMOOTH",
"999 355 LINE SMOOTH",
"999 366 OFFCURVE",
"990 375 OFFCURVE",
"980 376 CURVE SMOOTH",
"920 382 LINE SMOOTH",
"909 383 OFFCURVE",
"898 392 OFFCURVE",
"895 402 CURVE",
"850 510 LINE",
"845 519 OFFCURVE",
"847 534 OFFCURVE",
"853 542 CURVE SMOOTH",
"892 588 LINE SMOOTH",
"899 596 OFFCURVE",
"898 609 OFFCURVE",
"891 616 CURVE SMOOTH",
"814 693 LINE SMOOTH",
"806 700 OFFCURVE",
"794 701 OFFCURVE",
"786 694 CURVE SMOOTH",
"739 656 LINE SMOOTH",
"731 649 OFFCURVE",
"717 648 OFFCURVE",
"708 652 CURVE",
"599 697 LINE",
"589 701 OFFCURVE",
"580 712 OFFCURVE",
"579 722 CURVE SMOOTH",
"574 782 LINE SMOOTH",
"573 792 OFFCURVE",
"564 801 OFFCURVE",
"553 801 CURVE SMOOTH",
"444 801 LINE SMOOTH",
"434 801 OFFCURVE",
"424 792 OFFCURVE",
"423 782 CURVE SMOOTH",
"418 722 LINE SMOOTH",
"417 712 OFFCURVE",
"408 701 OFFCURVE",
"398 697 CURVE",
"290 652 LINE",
"280 648 OFFCURVE",
"266 649 OFFCURVE",
"258 656 CURVE SMOOTH",
"212 694 LINE SMOOTH",
"204 701 OFFCURVE",
"191 700 OFFCURVE",
"184 693 CURVE SMOOTH",
"107 616 LINE SMOOTH",
"99 609 OFFCURVE",
"99 596 OFFCURVE",
"105 588 CURVE SMOOTH",
"144 542 LINE SMOOTH",
"151 534 OFFCURVE",
"152 519 OFFCURVE",
"147 510 CURVE",
"102 402 LINE",
"99 392 OFFCURVE",
"88 383 OFFCURVE",
"78 382 CURVE SMOOTH",
"18 376 LINE SMOOTH",
"7 375 OFFCURVE",
"-1 366 OFFCURVE",
"-1 355 CURVE SMOOTH",
"-1 247 LINE SMOOTH",
"-1 236 OFFCURVE",
"7 227 OFFCURVE",
"18 226 CURVE SMOOTH",
"78 220 LINE SMOOTH",
"88 219 OFFCURVE",
"99 210 OFFCURVE",
"102 200 CURVE",
"147 92 LINE",
"152 83 OFFCURVE",
"151 68 OFFCURVE",
"144 60 CURVE SMOOTH",
"105 14 LINE SMOOTH",
"99 6 OFFCURVE",
"99 -7 OFFCURVE",
"107 -14 CURVE SMOOTH",
"184 -91 LINE SMOOTH",
"191 -98 OFFCURVE",
"204 -99 OFFCURVE",
"212 -92 CURVE SMOOTH",
"258 -54 LINE SMOOTH",
"266 -47 OFFCURVE",
"280 -46 OFFCURVE",
"290 -50 CURVE",
"398 -95 LINE",
"408 -98 OFFCURVE",
"417 -110 OFFCURVE",
"418 -120 CURVE SMOOTH",
"423 -180 LINE SMOOTH",
"424 -190 OFFCURVE",
"434 -199 OFFCURVE",
"444 -199 CURVE SMOOTH",
"553 -199 LINE SMOOTH",
"564 -199 OFFCURVE",
"573 -190 OFFCURVE",
"574 -180 CURVE SMOOTH",
"579 -120 LINE SMOOTH",
"580 -110 OFFCURVE",
"589 -98 OFFCURVE",
"599 -95 CURVE",
"708 -50 LINE",
"717 -46 OFFCURVE",
"731 -47 OFFCURVE",
"739 -54 CURVE SMOOTH",
"786 -92 LINE SMOOTH",
"794 -99 OFFCURVE",
"806 -98 OFFCURVE",
"814 -91 CURVE SMOOTH",
"891 -14 LINE SMOOTH",
"898 -7 OFFCURVE",
"899 6 OFFCURVE",
"892 14 CURVE SMOOTH",
"853 60 LINE SMOOTH",
"847 68 OFFCURVE",
"845 83 OFFCURVE",
"850 92 CURVE",
"895 200 LINE",
"898 210 OFFCURVE",
"909 219 OFFCURVE",
"920 220 CURVE SMOOTH",
"980 226 LINE SMOOTH"
);
},
{
closed = 1;
nodes = (
"362 53 OFFCURVE",
"251 164 OFFCURVE",
"251 301 CURVE SMOOTH",
"251 438 OFFCURVE",
"362 549 OFFCURVE",
"499 549 CURVE SMOOTH",
"636 549 OFFCURVE",
"747 438 OFFCURVE",
"747 301 CURVE SMOOTH",
"747 164 OFFCURVE",
"636 53 OFFCURVE",
"499 53 CURVE SMOOTH"
);
}
);
width = 1000;
}
);
unicode = 0053;
},
{
glyphname = T;
layers = (
{
layerId = "8EDAA7A7-1AFB-42B2-BF34-013D0EB3C3CC";
name = Regular;
paths = (
{
closed = 1;
nodes = (
"641 287 LINE",
"597 262 OFFCURVE",
"516 247 OFFCURVE",
"454 238 CURVE SMOOTH",
"392 229 OFFCURVE",
"328 216 OFFCURVE",
"293 176 CURVE SMOOTH",
"276 156 OFFCURVE",
"267 130 OFFCURVE",
"267 97 CURVE SMOOTH",
"267 14 OFFCURVE",
"326 -30 OFFCURVE",
"410 -30 CURVE SMOOTH",
"547 -30 OFFCURVE",
"641 46 OFFCURVE",
"641 181 CURVE SMOOTH"
);
},
{
closed = 1;
nodes = (
"661 -173 LINE",
"651 -146 OFFCURVE",
"645 -116 OFFCURVE",
"643 -81 CURVE",
"563 -160 OFFCURVE",
"461 -200 OFFCURVE",
"337 -200 CURVE SMOOTH",
"210 -200 OFFCURVE",
"110 -164 OFFCURVE",
"47 -76 CURVE SMOOTH",
"16 -32 OFFCURVE",
"0 22 OFFCURVE",
"0 86 CURVE SMOOTH",
"0 139 OFFCURVE",
"13 186 OFFCURVE",
"30 220 CURVE SMOOTH",
"46 254 OFFCURVE",
"81 284 OFFCURVE",
"108 304 CURVE SMOOTH",
"135 323 OFFCURVE",
"187 342 OFFCURVE",
"219 352 CURVE SMOOTH",
"251 362 OFFCURVE",
"315 373 OFFCURVE",
"347 378 CURVE SMOOTH",
"362 380 OFFCURVE",
"384 383 OFFCURVE",
"412 386 CURVE SMOOTH",
"445 390 OFFCURVE",
"479 395 OFFCURVE",
"512 401 CURVE SMOOTH",
"544 406 OFFCURVE",
"555 408 OFFCURVE",
"583 419 CURVE SMOOTH",
"611 430 OFFCURVE",
"623 440 OFFCURVE",
"635 462 CURVE",
"640 473 OFFCURVE",
"643 485 OFFCURVE",
"643 500 CURVE SMOOTH",
"643 584 OFFCURVE",
"586 626 OFFCURVE",
"473 626 CURVE SMOOTH",
"357 626 OFFCURVE",
"303 590 OFFCURVE",
"286 481 CURVE",
"42 481 LINE",
"50 601 OFFCURVE",
"103 687 OFFCURVE",
"187 734 CURVE SMOOTH",
"270 781 OFFCURVE",
"364 800 OFFCURVE",
"480 800 CURVE SMOOTH",
"571 800 OFFCURVE",
"643 792 OFFCURVE",
"716 764 CURVE SMOOTH",
"789 736 OFFCURVE",
"838 695 OFFCURVE",
"869 621 CURVE SMOOTH",
"884 584 OFFCURVE",
"892 541 OFFCURVE",
"892 492 CURVE SMOOTH",
"892 84 LINE SMOOTH",
"892 -1 OFFCURVE",
"890 -17 OFFCURVE",
"901 -84 CURVE SMOOTH",
"906 -118 OFFCURVE",
"914 -148 OFFCURVE",
"925 -173 CURVE"
);
}
);
width = 925;
}
);
unicode = 0054;
},
{
glyphname = U;
layers = (
{
layerId = "8EDAA7A7-1AFB-42B2-BF34-013D0EB3C3CC";
name = Regular;
paths = (
{
closed = 1;
nodes = (
"1070 -151 OFFCURVE",
"1069 -172 OFFCURVE",
"1068 -200 CURVE",
"1 -200 LINE",
"1 -193 OFFCURVE",
"1 -183 OFFCURVE",
"1 -169 CURVE",
"0 -155 OFFCURVE",
"0 -144 OFFCURVE",
"0 -137 CURVE SMOOTH",
"0 -117 OFFCURVE",
"0 -105 OFFCURVE",
"1 -100 CURVE",
"17 -35 OFFCURVE",
"97 14 OFFCURVE",
"177 38 CURVE SMOOTH",
"256 61 OFFCURVE",
"358 102 OFFCURVE",
"399 150 CURVE",
"410 165 OFFCURVE",
"416 177 OFFCURVE",
"416 188 CURVE SMOOTH",
"416 203 OFFCURVE",
"412 227 OFFCURVE",
"405 261 CURVE SMOOTH",
"400 289 OFFCURVE",
"391 307 OFFCURVE",
"379 331 CURVE",
"372 342 OFFCURVE",
"367 353 OFFCURVE",
"363 362 CURVE SMOOTH",
"353 385 OFFCURVE",
"342 429 OFFCURVE",
"330 494 CURVE SMOOTH",
"326 519 OFFCURVE",
"324 544 OFFCURVE",
"324 569 CURVE SMOOTH",
"324 709 OFFCURVE",
"396 800 OFFCURVE",
"535 800 CURVE SMOOTH",
"674 800 OFFCURVE",
"746 709 OFFCURVE",
"746 569 CURVE SMOOTH",
"746 548 OFFCURVE",
"744 523 OFFCURVE",
"739 494 CURVE SMOOTH",
"730 435 OFFCURVE",
"719 391 OFFCURVE",
"707 362 CURVE SMOOTH",
"703 353 OFFCURVE",
"698 342 OFFCURVE",
"692 331 CURVE SMOOTH",
"679 307 OFFCURVE",
"670 289 OFFCURVE",
"665 261 CURVE SMOOTH",
"658 227 OFFCURVE",
"654 203 OFFCURVE",
"654 188 CURVE SMOOTH",
"654 176 OFFCURVE",
"660 163 OFFCURVE",
"671 150 CURVE SMOOTH",
"712 102 OFFCURVE",
"814 61 OFFCURVE",
"893 38 CURVE SMOOTH",
"972 14 OFFCURVE",
"1052 -35 OFFCURVE",
"1068 -100 CURVE",
"1069 -105 OFFCURVE",
"1070 -118 OFFCURVE",
"1070 -137 CURVE SMOOTH"
);
}
);
width = 1070;
}
);
unicode = 0055;
},
{
glyphname = V;
layers = (
{
layerId = "8EDAA7A7-1AFB-42B2-BF34-013D0EB3C3CC";
name = Regular;
paths = (
{
closed = 1;
nodes = (
"577 -9 OFFCURVE",
"701 106 OFFCURVE",
"713 253 CURVE",
"856 253 LINE",
"844 26 OFFCURVE",
"656 -151 OFFCURVE",
"429 -151 CURVE SMOOTH",
"324 -151 OFFCURVE",
"231 -117 OFFCURVE",
"150 -49 CURVE",
"0 -199 LINE",
"0 206 LINE",
"405 206 LINE",
"252 53 LINE",
"304 12 OFFCURVE",
"363 -9 OFFCURVE",
"429 -9 CURVE SMOOTH"
);
},
{
closed = 1;
nodes = (
"857 801 LINE",
"857 396 LINE",
"452 396 LINE",
"605 549 LINE",
"554 590 OFFCURVE",
"495 611 OFFCURVE",
"429 611 CURVE SMOOTH",
"281 611 OFFCURVE",
"156 496 OFFCURVE",
"144 349 CURVE",
"1 349 LINE",
"13 576 OFFCURVE",
"201 753 OFFCURVE",
"429 753 CURVE SMOOTH",
"534 753 OFFCURVE",
"626 719 OFFCURVE",
"707 651 CURVE"
);
}
);
width = 857;
}
);
unicode = 0056;
},
{
glyphname = W;
layers = (
{
layerId = "8EDAA7A7-1AFB-42B2-BF34-013D0EB3C3CC";
name = Regular;
paths = (
{
closed = 1;
nodes = (
"619 -31 OFFCURVE",
"626 -14 OFFCURVE",
"626 5 CURVE SMOOTH",
"626 44 OFFCURVE",
"595 74 OFFCURVE",
"556 74 CURVE SMOOTH",
"519 74 OFFCURVE",
"487 44 OFFCURVE",
"487 5 CURVE SMOOTH",
"487 -34 OFFCURVE",
"519 -65 OFFCURVE",
"556 -65 CURVE SMOOTH",
"575 -65 OFFCURVE",
"592 -58 OFFCURVE",
"606 -44 CURVE SMOOTH"
);
},
{
closed = 1;
nodes = (
"626 538 LINE",
"487 538 LINE",
"487 392 LINE SMOOTH",
"487 373 OFFCURVE",
"490 358 OFFCURVE",
"495 338 CURVE",
"497 327 OFFCURVE",
"499 318 OFFCURVE",
"500 311 CURVE SMOOTH",
"526 149 LINE",
"585 149 LINE",
"612 311 LINE SMOOTH",
"613 318 OFFCURVE",
"615 326 OFFCURVE",
"618 337 CURVE SMOOTH",
"623 358 OFFCURVE",
"626 373 OFFCURVE",
"626 392 CURVE SMOOTH"
);
},
{
closed = 1;
nodes = (
"1113 -171 OFFCURVE",
"1071 -199 OFFCURVE",
"1018 -199 CURVE SMOOTH",
"95 -199 LINE SMOOTH",
"42 -199 OFFCURVE",
"0 -170 OFFCURVE",
"0 -119 CURVE SMOOTH",
"0 -99 OFFCURVE",
"6 -79 OFFCURVE",
"18 -58 CURVE SMOOTH",
"479 746 LINE SMOOTH",
"501 783 OFFCURVE",
"527 801 OFFCURVE",
"557 801 CURVE SMOOTH",
"587 801 OFFCURVE",
"612 783 OFFCURVE",
"633 746 CURVE SMOOTH",
"1095 -59 LINE SMOOTH",
"1107 -80 OFFCURVE",
"1113 -100 OFFCURVE",
"1113 -119 CURVE SMOOTH"
);
}
);
width = 1113;
}
);
unicode = 0057;
},
{
glyphname = X;
layers = (
{
layerId = "8EDAA7A7-1AFB-42B2-BF34-013D0EB3C3CC";
name = Regular;
paths = (
{
closed = 1;
nodes = (
"852 -54 LINE",
"748 -151 OFFCURVE",
"635 -200 OFFCURVE",
"514 -200 CURVE SMOOTH",
"225 -200 OFFCURVE",
"0 15 OFFCURVE",
"0 302 CURVE SMOOTH",
"0 482 OFFCURVE",
"98 645 OFFCURVE",
"252 734 CURVE SMOOTH",
"329 778 OFFCURVE",
"412 800 OFFCURVE",
"502 800 CURVE SMOOTH",
"625 800 OFFCURVE",
"741 751 OFFCURVE",
"851 652 CURVE",
"746 546 LINE",
"670 615 OFFCURVE",
"589 650 OFFCURVE",
"503 650 CURVE SMOOTH",
"304 650 OFFCURVE",
"149 492 OFFCURVE",
"149 292 CURVE SMOOTH",
"149 105 OFFCURVE",
"313 -50 OFFCURVE",
"502 -50 CURVE SMOOTH",
"589 -50 OFFCURVE",
"671 -16 OFFCURVE",
"746 53 CURVE"
);
},
{
closed = 1;
nodes = (
"912 565 LINE",
"1188 299 LINE",
"912 35 LINE",
"912 212 LINE",
"499 212 LINE",
"499 388 LINE",
"912 388 LINE"
);
}
);
width = 1188;
}
);
unicode = 0058;
},
{
glyphname = Z;
layers = (
{
layerId = "8EDAA7A7-1AFB-42B2-BF34-013D0EB3C3CC";
name = Regular;
paths = (
{
closed = 1;
nodes = (
"864 267 OFFCURVE",
"870 282 OFFCURVE",
"870 300 CURVE SMOOTH",
"870 336 OFFCURVE",
"840 365 OFFCURVE",
"804 365 CURVE SMOOTH",
"413 365 LINE SMOOTH",
"377 365 OFFCURVE",
"348 336 OFFCURVE",
"348 300 CURVE SMOOTH",
"348 264 OFFCURVE",
"377 235 OFFCURVE",
"413 235 CURVE SMOOTH",
"804 235 LINE SMOOTH",
"822 235 OFFCURVE",
"838 241 OFFCURVE",
"851 254 CURVE SMOOTH"
);
},
{
closed = 1;
nodes = (
"1174 -157 LINE SMOOTH",
"1174 -180 OFFCURVE",
"1154 -200 OFFCURVE",
"1130 -200 CURVE SMOOTH",
"87 -200 LINE SMOOTH",
"63 -200 OFFCURVE",
"43 -180 OFFCURVE",
"43 -157 CURVE SMOOTH",
"43 452 LINE SMOOTH",
"43 476 OFFCURVE",
"63 496 OFFCURVE",
"87 496 CURVE SMOOTH",
"1130 496 LINE SMOOTH",
"1154 496 OFFCURVE",
"1174 476 OFFCURVE",
"1174 452 CURVE SMOOTH"
);
},
{
closed = 1;
nodes = (
"1217 626 LINE SMOOTH",
"1217 602 OFFCURVE",
"1198 583 OFFCURVE",
"1174 583 CURVE SMOOTH",
"43 583 LINE SMOOTH",
"20 583 OFFCURVE",
"0 602 OFFCURVE",
"0 626 CURVE SMOOTH",
"0 757 LINE SMOOTH",
"0 780 OFFCURVE",
"20 800 OFFCURVE",
"43 800 CURVE SMOOTH",
"1174 800 LINE SMOOTH",
"1198 800 OFFCURVE",
"1217 780 OFFCURVE",
"1217 757 CURVE SMOOTH"
);
}
);
width = 1217;
}
);
unicode = 005A;
},
{
glyphname = a;
layers = (
{
layerId = "8EDAA7A7-1AFB-42B2-BF34-013D0EB3C3CC";
name = Regular;
paths = (
{
closed = 1;
nodes = (
"160 -40 LINE",
"600 -40 LINE",
"600 520 LINE",
"480 520 LINE",
"480 640 LINE",
"160 640 LINE"
);
},
{
closed = 1;
nodes = (
"560 800 LINE",
"760 600 LINE",
"759 -200 LINE",
"0 -200 LINE",
"0 800 LINE"
);
}
);
width = 760;
}
);
unicode = 0061;
},
{
glyphname = b;
layers = (
{
layerId = "8EDAA7A7-1AFB-42B2-BF34-013D0EB3C3CC";
name = Regular;
paths = (
{
closed = 1;
nodes = (
"158 108 LINE",
"829 108 LINE",
"829 424 LINE",
"711 424 LINE",
"711 542 LINE",
"158 542 LINE"
);
},
{
closed = 1;
nodes = (
"987 503 LINE",
"987 -50 LINE",
"0 -50 LINE",
"0 700 LINE",
"789 700 LINE"
);
}
);
width = 989;
}
);
unicode = 0062;
},
{
glyphname = c;
layers = (
{
layerId = "8EDAA7A7-1AFB-42B2-BF34-013D0EB3C3CC";
name = Regular;
paths = (
{
closed = 1;
nodes = (
"1137 168 LINE SMOOTH",
"1137 113 OFFCURVE",
"1092 68 OFFCURVE",
"1037 68 CURVE SMOOTH",
"869 68 LINE",
"869 -200 LINE",
"602 68 LINE",
"100 68 LINE SMOOTH",
"45 68 OFFCURVE",
"0 113 OFFCURVE",
"0 168 CURVE SMOOTH",
"0 700 LINE SMOOTH",
"0 755 OFFCURVE",
"45 800 OFFCURVE",
"100 800 CURVE SMOOTH",
"1037 800 LINE SMOOTH",
"1092 800 OFFCURVE",
"1137 755 OFFCURVE",
"1137 700 CURVE SMOOTH"
);
}
);
width = 1137;
}
);
unicode = 0063;
},
{
glyphname = d;
layers = (
{
layerId = "8EDAA7A7-1AFB-42B2-BF34-013D0EB3C3CC";
name = Regular;
paths = (
{
closed = 1;
nodes = (
"1153 498 OFFCURVE",
"1179 420 OFFCURVE",
"1179 336 CURVE SMOOTH",
"1179 168 OFFCURVE",
"1066 16 OFFCURVE",
"885 -67 CURVE SMOOTH",
"794 -108 OFFCURVE",
"696 -129 OFFCURVE",
"589 -129 CURVE SMOOTH",
"508 -129 OFFCURVE",
"430 -116 OFFCURVE",
"355 -90 CURVE",
"357 -93 LINE",
"0 -200 LINE",
"59 -121 OFFCURVE",
"95 -19 OFFCURVE",
"102 32 CURVE SMOOTH",
"106 70 LINE",
"35 150 OFFCURVE",
"0 239 OFFCURVE",
"0 336 CURVE SMOOTH",
"0 504 OFFCURVE",
"113 655 OFFCURVE",
"294 738 CURVE SMOOTH",
"384 779 OFFCURVE",
"482 800 OFFCURVE",
"589 800 CURVE SMOOTH",
"802 800 OFFCURVE",
"995 712 OFFCURVE",
"1100 569 CURVE SMOOTH"
);
}
);
width = 1179;
}
);
unicode = 0064;
},
{
glyphname = e;
layers = (
{
layerId = "8EDAA7A7-1AFB-42B2-BF34-013D0EB3C3CC";
name = Regular;
paths = (
{
closed = 1;
nodes = (
"429 375 OFFCURVE",
"397 407 OFFCURVE",
"357 407 CURVE SMOOTH",
"318 407 OFFCURVE",
"286 375 OFFCURVE",
"286 336 CURVE SMOOTH",
"286 296 OFFCURVE",
"318 264 OFFCURVE",
"357 264 CURVE SMOOTH",
"397 264 OFFCURVE",
"429 296 OFFCURVE",
"429 336 CURVE SMOOTH"
);
},
{
closed = 1;
nodes = (
"679 375 OFFCURVE",
"647 407 OFFCURVE",
"607 407 CURVE SMOOTH",
"568 407 OFFCURVE",
"536 375 OFFCURVE",
"536 336 CURVE SMOOTH",
"536 296 OFFCURVE",
"568 264 OFFCURVE",
"607 264 CURVE SMOOTH",
"647 264 OFFCURVE",
"679 296 OFFCURVE",
"679 336 CURVE SMOOTH"
);
},
{
closed = 1;
nodes = (
"929 375 OFFCURVE",
"897 407 OFFCURVE",
"857 407 CURVE SMOOTH",
"818 407 OFFCURVE",
"786 375 OFFCURVE",
"786 336 CURVE SMOOTH",
"786 296 OFFCURVE",
"818 264 OFFCURVE",
"857 264 CURVE SMOOTH",
"897 264 OFFCURVE",
"929 296 OFFCURVE",
"929 336 CURVE SMOOTH"
);
},
{
closed = 1;
nodes = (
"1153 498 OFFCURVE",
"1179 420 OFFCURVE",
"1179 336 CURVE SMOOTH",
"1179 168 OFFCURVE",
"1066 16 OFFCURVE",
"885 -67 CURVE SMOOTH",
"794 -108 OFFCURVE",
"696 -129 OFFCURVE",
"589 -129 CURVE SMOOTH",
"508 -129 OFFCURVE",
"430 -116 OFFCURVE",
"355 -90 CURVE",
"357 -93 LINE",
"0 -200 LINE",
"59 -121 OFFCURVE",
"95 -19 OFFCURVE",
"102 32 CURVE SMOOTH",
"106 70 LINE",
"35 150 OFFCURVE",
"0 239 OFFCURVE",
"0 336 CURVE SMOOTH",
"0 504 OFFCURVE",
"113 655 OFFCURVE",
"294 738 CURVE SMOOTH",
"384 779 OFFCURVE",
"482 800 OFFCURVE",
"589 800 CURVE SMOOTH",
"802 800 OFFCURVE",
"995 712 OFFCURVE",
"1100 569 CURVE SMOOTH"
);
}
);
width = 1179;
}
);
unicode = 0065;
},
{
glyphname = f;
layers = (
{
layerId = "8EDAA7A7-1AFB-42B2-BF34-013D0EB3C3CC";
name = Regular;
paths = (
{
closed = 1;
nodes = (
"833 670 LINE",
"804 680 OFFCURVE",
"757 685 OFFCURVE",
"690 685 CURVE SMOOTH",
"585 685 OFFCURVE",
"541 621 OFFCURVE",
"541 508 CURVE SMOOTH",
"541 502 LINE",
"541 466 LINE",
"541 430 LINE",
"462 430 LINE",
"462 315 LINE",
"541 315 LINE",
"541 -85 LINE",
"690 -85 LINE",
"690 315 LINE",
"808 315 LINE",
"817 430 LINE",
"690 430 LINE",
"690 466 LINE",
"690 508 LINE",
"690 520 LINE SMOOTH",
"690 548 OFFCURVE",
"710 562 OFFCURVE",
"749 562 CURVE SMOOTH",
"770 562 OFFCURVE",
"791 559 OFFCURVE",
"813 552 CURVE"
);
},
{
closed = 1;
nodes = (
"1000 -112 LINE SMOOTH",
"1000 -160 OFFCURVE",
"960 -200 OFFCURVE",
"912 -200 CURVE SMOOTH",
"88 -200 LINE SMOOTH",
"40 -200 OFFCURVE",
"0 -160 OFFCURVE",
"0 -112 CURVE SMOOTH",
"0 712 LINE SMOOTH",
"0 760 OFFCURVE",
"40 800 OFFCURVE",
"88 800 CURVE SMOOTH",
"912 800 LINE SMOOTH",
"960 800 OFFCURVE",
"1000 760 OFFCURVE",
"1000 712 CURVE SMOOTH"
);
}
);
width = 1000;
}
);
unicode = 0066;
},
{
glyphname = g;
layers = (
{
layerId = "8EDAA7A7-1AFB-42B2-BF34-013D0EB3C3CC";
name = Regular;
paths = (
{
closed = 1;
nodes = (
"468 62 OFFCURVE",
"398 23 OFFCURVE",
"335 23 CURVE SMOOTH",
"272 23 OFFCURVE",
"211 56 OFFCURVE",
"211 115 CURVE SMOOTH",
"211 179 OFFCURVE",
"276 211 OFFCURVE",
"344 211 CURVE SMOOTH",
"405 211 OFFCURVE",
"468 178 OFFCURVE",
"468 121 CURVE SMOOTH"
);
},
{
closed = 1;
nodes = (
"413 419 OFFCURVE",
"393 381 OFFCURVE",
"349 381 CURVE SMOOTH",
"292 381 OFFCURVE",
"255 457 OFFCURVE",
"255 518 CURVE SMOOTH",
"255 565 OFFCURVE",
"275 603 OFFCURVE",
"319 603 CURVE SMOOTH",
"376 603 OFFCURVE",
"413 527 OFFCURVE",
"413 466 CURVE SMOOTH"
);
},
{
closed = 1;
nodes = (
"548 643 OFFCURVE",
"541 647 OFFCURVE",
"526 647 CURVE SMOOTH",
"524 647 OFFCURVE",
"507 647 OFFCURVE",
"474 648 CURVE SMOOTH",
"409 648 OFFCURVE",
"390 648 OFFCURVE",
"341 644 CURVE",
"316 641 OFFCURVE",
"297 638 OFFCURVE",
"282 633 CURVE SMOOTH",
"205 608 OFFCURVE",
"155 548 OFFCURVE",
"155 469 CURVE SMOOTH",
"155 376 OFFCURVE",
"220 313 OFFCURVE",
"313 314 CURVE SMOOTH",
"319 314 LINE",
"319 298 OFFCURVE",
"320 286 OFFCURVE",
"321 279 CURVE SMOOTH",
"322 272 OFFCURVE",
"324 268 OFFCURVE",
"326 268 CURVE",
"328 267 OFFCURVE",
"331 266 OFFCURVE",
"334 263 CURVE SMOOTH",
"337 260 OFFCURVE",
"339 255 OFFCURVE",
"342 248 CURVE",
"269 248 OFFCURVE",
"205 236 OFFCURVE",
"154 188 CURVE SMOOTH",
"129 164 OFFCURVE",
"116 134 OFFCURVE",
"116 97 CURVE SMOOTH",
"116 -6 OFFCURVE",
"212 -55 OFFCURVE",
"321 -55 CURVE SMOOTH",
"444 -55 OFFCURVE",
"548 7 OFFCURVE",
"548 124 CURVE SMOOTH",
"548 175 OFFCURVE",
"517 225 OFFCURVE",
"485 252 CURVE SMOOTH",
"453 279 OFFCURVE",
"422 306 OFFCURVE",
"422 319 CURVE SMOOTH",
"422 334 OFFCURVE",
"446 354 OFFCURVE",
"471 374 CURVE SMOOTH",
"495 393 OFFCURVE",
"519 438 OFFCURVE",
"519 494 CURVE SMOOTH",
"519 545 OFFCURVE",
"504 580 OFFCURVE",
"475 601 CURVE",
"476 601 OFFCURVE",
"503 604 OFFCURVE",
"511 606 CURVE SMOOTH",
"519 608 OFFCURVE",
"538 612 OFFCURVE",
"544 621 CURVE",
"547 625 OFFCURVE",
"548 630 OFFCURVE",
"548 636 CURVE SMOOTH"
);
},
{
closed = 1;
nodes = (
"763 473 LINE",
"884 473 LINE",
"884 533 LINE",
"763 533 LINE",
"763 655 LINE",
"703 655 LINE",
"703 533 LINE",
"581 533 LINE",
"581 473 LINE",
"703 473 LINE",
"703 352 LINE",
"763 352 LINE"
);
},
{
closed = 1;
nodes = (
"1000 -112 LINE SMOOTH",
"1000 -160 OFFCURVE",
"960 -200 OFFCURVE",
"912 -200 CURVE SMOOTH",
"88 -200 LINE SMOOTH",
"40 -200 OFFCURVE",
"0 -160 OFFCURVE",
"0 -112 CURVE SMOOTH",
"0 712 LINE SMOOTH",
"0 760 OFFCURVE",
"40 800 OFFCURVE",
"88 800 CURVE SMOOTH",
"912 800 LINE SMOOTH",
"960 800 OFFCURVE",
"1000 760 OFFCURVE",
"1000 712 CURVE SMOOTH"
);
}
);
width = 1000;
}
);
unicode = 0067;
},
{
glyphname = h;
layers = (
{
layerId = "8EDAA7A7-1AFB-42B2-BF34-013D0EB3C3CC";
name = Regular;
paths = (
{
closed = 1;
nodes = (
"501 801 LINE",
"501 482 LINE",
"648 462 OFFCURVE",
"776 420 OFFCURVE",
"864 369 CURVE SMOOTH",
"951 318 OFFCURVE",
"1024 257 OFFCURVE",
"1068 196 CURVE SMOOTH",
"1112 135 OFFCURVE",
"1145 74 OFFCURVE",
"1160 22 CURVE SMOOTH",
"1175 -30 OFFCURVE",
"1184 -71 OFFCURVE",
"1184 -94 CURVE",
"1185 -111 LINE",
"1181 -104 OFFCURVE",
"1175 -94 OFFCURVE",
"1166 -81 CURVE SMOOTH",
"1149 -57 OFFCURVE",
"1067 15 OFFCURVE",
"974 58 CURVE SMOOTH",
"881 101 OFFCURVE",
"701 134 OFFCURVE",
"501 117 CURVE",
"501 -199 LINE",
"0 300 LINE"
);
}
);
width = 1185;
}
);
unicode = 0068;
},
{
glyphname = i;
layers = (
{
layerId = "8EDAA7A7-1AFB-42B2-BF34-013D0EB3C3CC";
name = Regular;
paths = (
{
closed = 1;
nodes = (
"866 801 LINE",
"866 482 LINE",
"1013 462 OFFCURVE",
"1141 420 OFFCURVE",
"1229 369 CURVE SMOOTH",
"1316 318 OFFCURVE",
"1389 257 OFFCURVE",
"1433 196 CURVE SMOOTH",
"1477 135 OFFCURVE",
"1510 74 OFFCURVE",
"1525 22 CURVE SMOOTH",
"1540 -30 OFFCURVE",
"1549 -71 OFFCURVE",
"1550 -94 CURVE",
"1550 -111 LINE",
"1546 -104 OFFCURVE",
"1540 -94 OFFCURVE",
"1531 -81 CURVE SMOOTH",
"1514 -57 OFFCURVE",
"1432 15 OFFCURVE",
"1339 58 CURVE SMOOTH",
"1246 101 OFFCURVE",
"1066 134 OFFCURVE",
"866 117 CURVE",
"866 -199 LINE",
"365 300 LINE"
);
},
{
closed = 1;
nodes = (
"501 801 LINE",
"501 619 LINE",
"182 300 LINE",
"501 -18 LINE",
"501 -199 LINE",
"0 300 LINE"
);
}
);
width = 1550;
}
);
unicode = 0069;
},
{
glyphname = j;
layers = (
{
layerId = "8EDAA7A7-1AFB-42B2-BF34-013D0EB3C3CC";
name = Regular;
paths = (
{
closed = 1;
nodes = (
"0 482 LINE",
"684 482 LINE",
"684 801 LINE",
"1185 300 LINE",
"684 -199 LINE",
"684 117 LINE",
"0 117 LINE"
);
}
);
width = 1185;
}
);
unicode = 006A;
},
{
glyphname = k;
layers = (
{
layerId = "8EDAA7A7-1AFB-42B2-BF34-013D0EB3C3CC";
name = Regular;
paths = (
{
closed = 1;
nodes = (
"544 348 LINE",
"727 348 LINE",
"726 467 LINE",
"542 467 LINE",
"544 648 LINE",
"432 648 LINE",
"430 603 OFFCURVE",
"418 563 OFFCURVE",
"395 530 CURVE SMOOTH",
"393 527 OFFCURVE",
"390 521 OFFCURVE",
"386 514 CURVE SMOOTH",
"378 499 OFFCURVE",
"371 488 OFFCURVE",
"364 483 CURVE",
"351 473 OFFCURVE",
"326 468 OFFCURVE",
"288 468 CURVE SMOOTH",
"273 468 LINE",
"273 348 LINE",
"364 345 LINE",
"364 42 LINE SMOOTH",
"364 -10 OFFCURVE",
"384 -45 OFFCURVE",
"420 -60 CURVE SMOOTH",
"455 -76 OFFCURVE",
"482 -79 OFFCURVE",
"525 -79 CURVE SMOOTH",
"570 -79 LINE SMOOTH",
"603 -79 OFFCURVE",
"630 -78 OFFCURVE",
"651 -75 CURVE",
"692 -71 OFFCURVE",
"700 -67 OFFCURVE",
"720 -56 CURVE",
"720 72 LINE",
"720 72 LINE",
"684 49 OFFCURVE",
"649 37 OFFCURVE",
"615 37 CURVE SMOOTH",
"579 37 OFFCURVE",
"544 59 OFFCURVE",
"544 75 CURVE SMOOTH"
);
},
{
closed = 1;
nodes = (
"1000 -112 LINE SMOOTH",
"1000 -160 OFFCURVE",
"960 -200 OFFCURVE",
"912 -200 CURVE SMOOTH",
"88 -200 LINE SMOOTH",
"40 -200 OFFCURVE",
"0 -160 OFFCURVE",
"0 -112 CURVE SMOOTH",
"0 712 LINE SMOOTH",
"0 760 OFFCURVE",
"40 800 OFFCURVE",
"88 800 CURVE SMOOTH",
"912 800 LINE SMOOTH",
"960 800 OFFCURVE",
"1000 760 OFFCURVE",
"1000 712 CURVE SMOOTH"
);
}
);
width = 1000;
}
);
unicode = 006B;
},
{
glyphname = l;
layers = (
{
layerId = "8EDAA7A7-1AFB-42B2-BF34-013D0EB3C3CC";
name = Regular;
paths = (
{
closed = 1;
nodes = (
"200 0 LINE",
"328 0 LINE",
"328 419 LINE",
"200 419 LINE"
);
},
{
closed = 1;
nodes = (
"332 572 OFFCURVE",
"305 600 OFFCURVE",
"265 600 CURVE SMOOTH",
"225 600 OFFCURVE",
"197 572 OFFCURVE",
"197 535 CURVE SMOOTH",
"197 498 OFFCURVE",
"224 470 OFFCURVE",
"263 470 CURVE SMOOTH",
"306 470 OFFCURVE",
"333 498 OFFCURVE",
"332 535 CURVE"
);
},
{
closed = 1;
nodes = (
"668 0 LINE",
"797 0 LINE",
"797 247 LINE SMOOTH",
"797 366 OFFCURVE",
"737 428 OFFCURVE",
"649 428 CURVE SMOOTH",
"586 428 OFFCURVE",
"542 395 OFFCURVE",
"521 360 CURVE",
"519 360 LINE",
"513 419 LINE",
"402 419 LINE",
"404 343 OFFCURVE",
"405 298 OFFCURVE",
"405 285 CURVE SMOOTH",
"405 0 LINE",
"533 0 LINE",
"533 241 LINE SMOOTH",
"533 255 OFFCURVE",
"534 266 OFFCURVE",
"537 274 CURVE SMOOTH",
"550 307 OFFCURVE",
"572 323 OFFCURVE",
"603 323 CURVE SMOOTH",
"646 323 OFFCURVE",
"668 293 OFFCURVE",
"668 232 CURVE SMOOTH"
);
},
{
closed = 1;
nodes = (
"1000 -112 LINE SMOOTH",
"1000 -160 OFFCURVE",
"960 -200 OFFCURVE",
"912 -200 CURVE SMOOTH",
"88 -200 LINE SMOOTH",
"40 -200 OFFCURVE",
"0 -160 OFFCURVE",
"0 -112 CURVE SMOOTH",
"0 712 LINE SMOOTH",
"0 760 OFFCURVE",
"40 800 OFFCURVE",
"88 800 CURVE SMOOTH",
"912 800 LINE SMOOTH",
"960 800 OFFCURVE",
"1000 760 OFFCURVE",
"1000 712 CURVE SMOOTH"
);
}
);
width = 1000;
}
);
unicode = 006C;
},
{
glyphname = m;
layers = (
{
layerId = "8EDAA7A7-1AFB-42B2-BF34-013D0EB3C3CC";
name = Regular;
paths = (
{
closed = 1;
nodes = (
"880 609 OFFCURVE",
"843 640 OFFCURVE",
"768 640 CURVE SMOOTH",
"669 640 OFFCURVE",
"572 558 OFFCURVE",
"540 461 CURVE",
"567 465 OFFCURVE",
"591 462 OFFCURVE",
"610 455 CURVE SMOOTH",
"629 448 OFFCURVE",
"640 429 OFFCURVE",
"640 397 CURVE SMOOTH",
"640 340 OFFCURVE",
"576 202 OFFCURVE",
"527 202 CURVE SMOOTH",
"514 202 OFFCURVE",
"502 208 OFFCURVE",
"491 221 CURVE",
"459 254 OFFCURVE",
"441 363 OFFCURVE",
"433 450 CURVE SMOOTH",
"425 537 OFFCURVE",
"392 619 OFFCURVE",
"332 619 CURVE SMOOTH",
"283 619 OFFCURVE",
"230 585 OFFCURVE",
"148 513 CURVE SMOOTH",
"107 476 OFFCURVE",
"84 457 OFFCURVE",
"80 454 CURVE",
"80 449 LINE",
"83 446 OFFCURVE",
"87 441 OFFCURVE",
"91 435 CURVE",
"98 422 OFFCURVE",
"105 416 OFFCURVE",
"121 416 CURVE SMOOTH",
"128 416 OFFCURVE",
"139 418 OFFCURVE",
"154 423 CURVE SMOOTH",
"169 428 OFFCURVE",
"180 430 OFFCURVE",
"188 430 CURVE SMOOTH",
"223 430 OFFCURVE",
"234 385 OFFCURVE",
"244 353 CURVE SMOOTH",
"249 336 OFFCURVE",
"252 325 OFFCURVE",
"254 320 CURVE",
"263 293 OFFCURVE",
"276 250 OFFCURVE",
"291 190 CURVE",
"292 185 OFFCURVE",
"302 145 OFFCURVE",
"306 132 CURVE",
"309 119 OFFCURVE",
"320 81 OFFCURVE",
"328 65 CURVE",
"335 48 OFFCURVE",
"347 18 OFFCURVE",
"359 4 CURVE SMOOTH",
"371 -10 OFFCURVE",
"387 -28 OFFCURVE",
"405 -35 CURVE",
"414 -38 OFFCURVE",
"423 -40 OFFCURVE",
"433 -40 CURVE SMOOTH",
"522 -40 OFFCURVE",
"636 60 OFFCURVE",
"717 181 CURVE SMOOTH",
"797 302 OFFCURVE",
"862 436 OFFCURVE",
"877 513 CURVE SMOOTH",
"879 525 OFFCURVE",
"880 536 OFFCURVE",
"880 547 CURVE SMOOTH"
);
},
{
closed = 1;
nodes = (
"1000 -112 LINE SMOOTH",
"1000 -160 OFFCURVE",
"960 -200 OFFCURVE",
"912 -200 CURVE SMOOTH",
"88 -200 LINE SMOOTH",
"40 -200 OFFCURVE",
"0 -160 OFFCURVE",
"0 -112 CURVE SMOOTH",
"0 712 LINE SMOOTH",
"0 760 OFFCURVE",
"40 800 OFFCURVE",
"88 800 CURVE SMOOTH",
"912 800 LINE SMOOTH",
"960 800 OFFCURVE",
"1000 760 OFFCURVE",
"1000 712 CURVE SMOOTH"
);
}
);
width = 1000;
}
);
unicode = 006D;
},
{
glyphname = n;
layers = (
{
layerId = "8EDAA7A7-1AFB-42B2-BF34-013D0EB3C3CC";
name = Regular;
paths = (
{
closed = 1;
nodes = (
"89 349 LINE",
"239 242 LINE",
"89 136 LINE"
);
},
{
closed = 1;
nodes = (
"1000 14 LINE",
"1000 -199 LINE",
"331 -199 LINE",
"331 14 LINE"
);
},
{
closed = 1;
nodes = (
"1000 349 LINE",
"1000 136 LINE",
"331 136 LINE",
"331 349 LINE"
);
},
{
closed = 1;
nodes = (
"1000 683 LINE",
"1000 470 LINE",
"331 470 LINE",
"331 683 LINE"
);
}
);
width = 1000;
}
);
unicode = 006E;
},
{
glyphname = o;
layers = (
{
layerId = "8EDAA7A7-1AFB-42B2-BF34-013D0EB3C3CC";
name = Regular;
paths = (
{
closed = 1;
nodes = (
"239 349 LINE",
"239 136 LINE",
"89 242 LINE"
);
},
{
closed = 1;
nodes = (
"1000 14 LINE",
"1000 -199 LINE",
"331 -199 LINE",
"331 14 LINE"
);
},
{
closed = 1;
nodes = (
"1000 349 LINE",
"1000 136 LINE",
"331 136 LINE",
"331 349 LINE"
);
},
{
closed = 1;
nodes = (
"1000 683 LINE",
"1000 470 LINE",
"331 470 LINE",
"331 683 LINE"
);
}
);
width = 1000;
}
);
unicode = 006F;
},
{
glyphname = p;
layers = (
{
layerId = "8EDAA7A7-1AFB-42B2-BF34-013D0EB3C3CC";
name = Regular;
paths = (
{
closed = 1;
nodes = (
"239 -134 OFFCURVE",
"204 -169 OFFCURVE",
"163 -169 CURVE SMOOTH",
"122 -169 OFFCURVE",
"87 -134 OFFCURVE",
"87 -93 CURVE SMOOTH",
"87 -50 OFFCURVE",
"122 -16 OFFCURVE",
"163 -16 CURVE SMOOTH",
"204 -16 OFFCURVE",
"239 -50 OFFCURVE",
"239 -93 CURVE SMOOTH"
);
},
{
closed = 1;
nodes = (
"232 281 OFFCURVE",
"239 263 OFFCURVE",
"239 242 CURVE SMOOTH",
"239 199 OFFCURVE",
"204 166 OFFCURVE",
"163 166 CURVE SMOOTH",
"122 166 OFFCURVE",
"87 199 OFFCURVE",
"87 242 CURVE SMOOTH",
"87 285 OFFCURVE",
"122 318 OFFCURVE",
"163 318 CURVE SMOOTH",
"184 318 OFFCURVE",
"202 311 OFFCURVE",
"217 296 CURVE SMOOTH"
);
},
{
closed = 1;
nodes = (
"1000 14 LINE",
"1000 -199 LINE",
"331 -199 LINE",
"331 14 LINE"
);
},
{
closed = 1;
nodes = (
"232 616 OFFCURVE",
"239 598 OFFCURVE",
"239 577 CURVE SMOOTH",
"239 536 OFFCURVE",
"204 501 OFFCURVE",
"163 501 CURVE SMOOTH",
"122 501 OFFCURVE",
"87 536 OFFCURVE",
"87 577 CURVE SMOOTH",
"87 618 OFFCURVE",
"122 653 OFFCURVE",
"163 653 CURVE SMOOTH",
"184 653 OFFCURVE",
"202 646 OFFCURVE",
"217 631 CURVE SMOOTH"
);
},
{
closed = 1;
nodes = (
"1000 349 LINE",
"1000 136 LINE",
"331 136 LINE",
"331 349 LINE"
);
},
{
closed = 1;
nodes = (
"1000 683 LINE",
"1000 470 LINE",
"331 470 LINE",
"331 683 LINE"
);
}
);
width = 1000;
}
);
unicode = 0070;
},
{
glyphname = q;
layers = (
{
layerId = "8EDAA7A7-1AFB-42B2-BF34-013D0EB3C3CC";
name = Regular;
paths = (
{
closed = 1;
nodes = (
"233 -167 OFFCURVE",
"201 -190 OFFCURVE",
"162 -190 CURVE SMOOTH",
"119 -190 OFFCURVE",
"91 -165 OFFCURVE",
"91 -124 CURVE SMOOTH",
"91 -121 LINE",
"129 -121 LINE",
"129 -146 OFFCURVE",
"140 -158 OFFCURVE",
"161 -158 CURVE SMOOTH",
"180 -158 OFFCURVE",
"193 -147 OFFCURVE",
"193 -128 CURVE SMOOTH",
"193 -109 OFFCURVE",
"178 -99 OFFCURVE",
"158 -100 CURVE",
"149 -100 LINE",
"149 -73 LINE",
"176 -74 OFFCURVE",
"189 -66 OFFCURVE",
"189 -49 CURVE SMOOTH",
"189 -34 OFFCURVE",
"178 -25 OFFCURVE",
"162 -25 CURVE SMOOTH",
"143 -25 OFFCURVE",
"133 -36 OFFCURVE",
"133 -58 CURVE",
"96 -58 LINE",
"97 -18 OFFCURVE",
"122 6 OFFCURVE",
"162 6 CURVE SMOOTH",
"197 6 OFFCURVE",
"226 -13 OFFCURVE",
"226 -46 CURVE SMOOTH",
"226 -63 OFFCURVE",
"215 -80 OFFCURVE",
"199 -84 CURVE",
"222 -89 OFFCURVE",
"233 -104 OFFCURVE",
"233 -128 CURVE SMOOTH"
);
},
{
closed = 1;
nodes = (
"232 175 LINE",
"232 142 LINE",
"91 142 LINE",
"92 179 OFFCURVE",
"118 208 OFFCURVE",
"143 221 CURVE SMOOTH",
"167 233 OFFCURVE",
"192 253 OFFCURVE",
"192 274 CURVE SMOOTH",
"192 290 OFFCURVE",
"181 301 OFFCURVE",
"164 301 CURVE SMOOTH",
"145 301 OFFCURVE",
"134 287 OFFCURVE",
"133 260 CURVE",
"96 260 LINE",
"96 305 OFFCURVE",
"121 335 OFFCURVE",
"166 335 CURVE SMOOTH",
"203 335 OFFCURVE",
"231 312 OFFCURVE",
"231 276 CURVE SMOOTH",
"231 243 OFFCURVE",
"206 224 OFFCURVE",
"175 205 CURVE SMOOTH",
"159 195 OFFCURVE",
"148 185 OFFCURVE",
"141 175 CURVE"
);
},
{
closed = 1;
nodes = (
"1000 14 LINE",
"1000 -199 LINE",
"331 -199 LINE",
"331 14 LINE"
);
},
{
closed = 1;
nodes = (
"196 662 LINE",
"196 470 LINE",
"154 470 LINE",
"154 595 LINE",
"108 595 LINE",
"108 624 LINE",
"141 624 OFFCURVE",
"159 637 OFFCURVE",
"164 662 CURVE"
);
},
{
closed = 1;
nodes = (
"1000 349 LINE",
"1000 136 LINE",
"331 136 LINE",
"331 349 LINE"
);
},
{
closed = 1;
nodes = (
"1000 683 LINE",
"1000 470 LINE",
"331 470 LINE",
"331 683 LINE"
);
}
);
width = 1000;
}
);
unicode = 0071;
},
{
glyphname = r;
layers = (
{
layerId = "8EDAA7A7-1AFB-42B2-BF34-013D0EB3C3CC";
name = Regular;
paths = (
{
closed = 1;
nodes = (
"324 84 OFFCURVE",
"284 124 OFFCURVE",
"235 124 CURVE SMOOTH",
"187 124 OFFCURVE",
"147 84 OFFCURVE",
"147 35 CURVE SMOOTH",
"147 -13 OFFCURVE",
"187 -53 OFFCURVE",
"235 -53 CURVE SMOOTH",
"284 -53 OFFCURVE",
"324 -13 OFFCURVE",
"324 35 CURVE SMOOTH"
);
},
{
closed = 1;
nodes = (
"613 -53 LINE",
"613 115 OFFCURVE",
"524 267 OFFCURVE",
"381 351 CURVE SMOOTH",
"309 392 OFFCURVE",
"231 413 OFFCURVE",
"147 413 CURVE",
"147 278 LINE",
"328 278 OFFCURVE",
"477 132 OFFCURVE",
"477 -53 CURVE"
);
},
{
closed = 1;
nodes = (
"853 -53 LINE",
"853 138 OFFCURVE",
"773 321 OFFCURVE",
"647 447 CURVE SMOOTH",
"521 573 OFFCURVE",
"338 653 OFFCURVE",
"147 653 CURVE",
"147 518 LINE",
"352 518 OFFCURVE",
"539 409 OFFCURVE",
"641 234 CURVE SMOOTH",
"692 146 OFFCURVE",
"717 50 OFFCURVE",
"717 -53 CURVE"
);
},
{
closed = 1;
nodes = (
"1000 -112 LINE SMOOTH",
"1000 -160 OFFCURVE",
"960 -200 OFFCURVE",
"912 -200 CURVE SMOOTH",
"88 -200 LINE SMOOTH",
"40 -200 OFFCURVE",
"0 -160 OFFCURVE",
"0 -112 CURVE SMOOTH",
"0 712 LINE SMOOTH",
"0 760 OFFCURVE",
"40 800 OFFCURVE",
"88 800 CURVE SMOOTH",
"912 800 LINE SMOOTH",
"960 800 OFFCURVE",
"1000 760 OFFCURVE",
"1000 712 CURVE SMOOTH"
);
}
);
width = 1000;
}
);
unicode = 0072;
},
{
glyphname = s;
layers = (
{
layerId = "8EDAA7A7-1AFB-42B2-BF34-013D0EB3C3CC";
name = Regular;
paths = (
{
closed = 1;
nodes = (
"783 242 OFFCURVE",
"751 291 OFFCURVE",
"704 318 CURVE SMOOTH",
"656 345 OFFCURVE",
"596 363 OFFCURVE",
"539 375 CURVE SMOOTH",
"482 386 OFFCURVE",
"432 397 OFFCURVE",
"403 418 CURVE SMOOTH",
"388 429 OFFCURVE",
"381 442 OFFCURVE",
"381 457 CURVE SMOOTH",
"381 502 OFFCURVE",
"441 522 OFFCURVE",
"493 522 CURVE SMOOTH",
"546 522 OFFCURVE",
"582 503 OFFCURVE",
"598 480 CURVE SMOOTH",
"606 468 OFFCURVE",
"613 456 OFFCURVE",
"620 445 CURVE",
"632 421 OFFCURVE",
"652 402 OFFCURVE",
"685 402 CURVE SMOOTH",
"722 402 OFFCURVE",
"754 431 OFFCURVE",
"754 467 CURVE SMOOTH",
"754 485 OFFCURVE",
"749 503 OFFCURVE",
"739 521 CURVE SMOOTH",
"699 594 OFFCURVE",
"601 626 OFFCURVE",
"502 626 CURVE SMOOTH",
"441 626 OFFCURVE",
"383 615 OFFCURVE",
"328 589 CURVE SMOOTH",
"273 563 OFFCURVE",
"237 512 OFFCURVE",
"237 445 CURVE SMOOTH",
"237 357 OFFCURVE",
"299 304 OFFCURVE",
"377 282 CURVE SMOOTH",
"416 271 OFFCURVE",
"454 261 OFFCURVE",
"493 253 CURVE SMOOTH",
"570 237 OFFCURVE",
"632 210 OFFCURVE",
"632 161 CURVE SMOOTH",
"632 105 OFFCURVE",
"564 78 OFFCURVE",
"500 78 CURVE SMOOTH",
"440 78 OFFCURVE",
"401 101 OFFCURVE",
"385 129 CURVE",
"376 143 OFFCURVE",
"369 157 OFFCURVE",
"362 172 CURVE SMOOTH",
"349 200 OFFCURVE",
"329 223 OFFCURVE",
"294 223 CURVE SMOOTH",
"257 223 OFFCURVE",
"224 197 OFFCURVE",
"224 161 CURVE SMOOTH",
"224 133 OFFCURVE",
"234 105 OFFCURVE",
"255 76 CURVE SMOOTH",
"303 7 OFFCURVE",
"386 -28 OFFCURVE",
"504 -28 CURVE SMOOTH",
"571 -28 OFFCURVE",
"634 -13 OFFCURVE",
"690 17 CURVE SMOOTH",
"746 47 OFFCURVE",
"783 103 OFFCURVE",
"783 175 CURVE SMOOTH"
);
},
{
closed = 1;
nodes = (
"1000 -78 OFFCURVE",
"875 -200 OFFCURVE",
"723 -200 CURVE SMOOTH",
"677 -200 OFFCURVE",
"634 -189 OFFCURVE",
"593 -168 CURVE",
"562 -173 OFFCURVE",
"533 -176 OFFCURVE",
"505 -176 CURVE SMOOTH",
"244 -176 OFFCURVE",
"28 34 OFFCURVE",
"28 295 CURVE SMOOTH",
"28 323 OFFCURVE",
"31 354 OFFCURVE",
"38 389 CURVE",
"13 432 OFFCURVE",
"0 478 OFFCURVE",
"0 527 CURVE SMOOTH",
"0 678 OFFCURVE",
"125 800 OFFCURVE",
"277 800 CURVE SMOOTH",
"331 800 OFFCURVE",
"380 786 OFFCURVE",
"424 758 CURVE",
"449 763 OFFCURVE",
"476 765 OFFCURVE",
"505 765 CURVE SMOOTH",
"677 765 OFFCURVE",
"832 676 OFFCURVE",
"918 532 CURVE SMOOTH",
"961 460 OFFCURVE",
"982 381 OFFCURVE",
"982 295 CURVE SMOOTH",
"982 258 OFFCURVE",
"978 224 OFFCURVE",
"971 194 CURVE",
"990 155 OFFCURVE",
"1000 115 OFFCURVE",
"1000 73 CURVE SMOOTH"
);
}
);
width = 1000;
}
);
unicode = 0073;
},
{
glyphname = t;
layers = (
{
layerId = "8EDAA7A7-1AFB-42B2-BF34-013D0EB3C3CC";
name = Regular;
paths = (
{
closed = 1;
nodes = (
"974 268 OFFCURVE",
"934 253 OFFCURVE",
"883 254 CURVE",
"834 51 OFFCURVE",
"620 -82 OFFCURVE",
"401 -82 CURVE SMOOTH",
"240 -82 OFFCURVE",
"95 -9 OFFCURVE",
"0 122 CURVE",
"50 74 OFFCURVE",
"110 50 OFFCURVE",
"181 50 CURVE SMOOTH",
"256 50 OFFCURVE",
"320 78 OFFCURVE",
"372 133 CURVE",
"340 128 OFFCURVE",
"300 144 OFFCURVE",
"300 175 CURVE SMOOTH",
"300 193 OFFCURVE",
"314 208 OFFCURVE",
"341 220 CURVE",
"288 213 OFFCURVE",
"241 235 OFFCURVE",
"217 282 CURVE",
"232 299 OFFCURVE",
"255 308 OFFCURVE",
"286 310 CURVE",
"221 326 OFFCURVE",
"183 360 OFFCURVE",
"174 412 CURVE",
"192 417 OFFCURVE",
"210 420 OFFCURVE",
"227 420 CURVE SMOOTH",
"235 420 LINE",
"186 447 OFFCURVE",
"148 490 OFFCURVE",
"149 541 CURVE",
"150 549 LINE",
"253 510 OFFCURVE",
"339 471 OFFCURVE",
"407 433 CURVE SMOOTH",
"427 422 OFFCURVE",
"452 401 OFFCURVE",
"483 370 CURVE",
"526 486 OFFCURVE",
"568 572 OFFCURVE",
"640 619 CURVE",
"639 608 OFFCURVE",
"634 598 OFFCURVE",
"625 588 CURVE",
"647 609 OFFCURVE",
"673 622 OFFCURVE",
"703 626 CURVE",
"701 611 OFFCURVE",
"683 597 OFFCURVE",
"650 585 CURVE",
"655 586 OFFCURVE",
"663 590 OFFCURVE",
"676 595 CURVE SMOOTH",
"700 605 OFFCURVE",
"719 610 OFFCURVE",
"734 610 CURVE SMOOTH",
"744 610 OFFCURVE",
"749 606 OFFCURVE",
"749 599 CURVE SMOOTH",
"749 594 OFFCURVE",
"744 588 OFFCURVE",
"733 583 CURVE SMOOTH",
"722 578 OFFCURVE",
"707 573 OFFCURVE",
"690 568 CURVE SMOOTH",
"673 563 OFFCURVE",
"663 560 OFFCURVE",
"662 559 CURVE",
"770 570 OFFCURVE",
"859 476 OFFCURVE",
"880 365 CURVE",
"892 361 OFFCURVE",
"904 359 OFFCURVE",
"916 359 CURVE SMOOTH",
"949 359 OFFCURVE",
"977 365 OFFCURVE",
"999 378 CURVE",
"982 338 OFFCURVE",
"937 315 OFFCURVE",
"889 312 CURVE",
"912 302 OFFCURVE",
"939 297 OFFCURVE",
"972 297 CURVE SMOOTH",
"983 297 OFFCURVE",
"993 298 OFFCURVE",
"1003 300 CURVE"
);
}
);
width = 1003;
}
);
unicode = 0074;
},
{
glyphname = u;
layers = (
{
layerId = "8EDAA7A7-1AFB-42B2-BF34-013D0EB3C3CC";
name = Regular;
paths = (
{
closed = 1;
nodes = (
"741 -199 LINE",
"741 801 LINE",
"963 801 LINE",
"963 -199 LINE"
);
},
{
closed = 1;
nodes = (
"593 -199 LINE",
"370 -199 LINE",
"370 468 LINE",
"593 468 LINE"
);
},
{
closed = 1;
nodes = (
"222 -199 LINE",
"0 -199 LINE",
"0 134 LINE",
"222 134 LINE"
);
}
);
width = 963;
}
);
unicode = 0075;
},
{
glyphname = v;
layers = (
{
layerId = "8EDAA7A7-1AFB-42B2-BF34-013D0EB3C3CC";
name = Regular;
paths = (
{
closed = 1;
nodes = (
"605 171 OFFCURVE",
"600 157 OFFCURVE",
"595 147 CURVE SMOOTH",
"590 137 OFFCURVE",
"576 128 OFFCURVE",
"568 123 CURVE",
"564 120 OFFCURVE",
"558 118 OFFCURVE",
"550 117 CURVE",
"542 115 OFFCURVE",
"536 114 OFFCURVE",
"532 113 CURVE SMOOTH",
"523 111 OFFCURVE",
"498 110 OFFCURVE",
"491 110 CURVE SMOOTH",
"487 110 OFFCURVE",
"480 110 OFFCURVE",
"470 110 CURVE SMOOTH",
"460 110 OFFCURVE",
"454 110 OFFCURVE",
"452 110 CURVE SMOOTH",
"430 110 LINE",
"430 260 LINE",
"481 260 LINE SMOOTH",
"495 260 OFFCURVE",
"504 260 OFFCURVE",
"507 260 CURVE SMOOTH",
"513 260 OFFCURVE",
"546 259 OFFCURVE",
"554 256 CURVE",
"562 252 OFFCURVE",
"584 245 OFFCURVE",
"591 235 CURVE SMOOTH",
"598 225 OFFCURVE",
"605 208 OFFCURVE",
"605 187 CURVE SMOOTH"
);
},
{
closed = 1;
nodes = (
"567 403 OFFCURVE",
"556 386 OFFCURVE",
"545 377 CURVE",
"533 368 OFFCURVE",
"504 364 OFFCURVE",
"491 364 CURVE",
"484 363 OFFCURVE",
"474 363 OFFCURVE",
"460 363 CURVE SMOOTH",
"430 363 LINE",
"430 490 LINE",
"469 490 LINE SMOOTH",
"493 490 OFFCURVE",
"501 490 OFFCURVE",
"522 486 CURVE SMOOTH",
"543 482 OFFCURVE",
"552 475 OFFCURVE",
"561 459 CURVE",
"565 451 OFFCURVE",
"567 441 OFFCURVE",
"567 430 CURVE SMOOTH"
);
},
{
closed = 1;
nodes = (
"760 261 OFFCURVE",
"716 313 OFFCURVE",
"637 329 CURVE",
"637 332 LINE",
"689 353 OFFCURVE",
"720 404 OFFCURVE",
"720 461 CURVE SMOOTH",
"720 522 OFFCURVE",
"693 562 OFFCURVE",
"645 579 CURVE SMOOTH",
"597 596 OFFCURVE",
"559 600 OFFCURVE",
"499 600 CURVE SMOOTH",
"280 600 LINE",
"280 0 LINE",
"520 0 LINE SMOOTH",
"583 0 OFFCURVE",
"637 12 OFFCURVE",
"684 39 CURVE SMOOTH",
"731 66 OFFCURVE",
"760 117 OFFCURVE",
"760 184 CURVE SMOOTH"
);
},
{
closed = 1;
nodes = (
"1000 -112 LINE SMOOTH",
"1000 -160 OFFCURVE",
"960 -200 OFFCURVE",
"912 -200 CURVE SMOOTH",
"88 -200 LINE SMOOTH",
"40 -200 OFFCURVE",
"0 -160 OFFCURVE",
"0 -112 CURVE SMOOTH",
"0 712 LINE SMOOTH",
"0 760 OFFCURVE",
"40 800 OFFCURVE",
"88 800 CURVE SMOOTH",
"912 800 LINE SMOOTH",
"960 800 OFFCURVE",
"1000 760 OFFCURVE",
"1000 712 CURVE SMOOTH"
);
}
);
width = 1000;
}
);
unicode = 0076;
},
{
glyphname = w;
layers = (
{
layerId = "8EDAA7A7-1AFB-42B2-BF34-013D0EB3C3CC";
name = Regular;
paths = (
{
closed = 1;
nodes = (
"582 32 LINE SMOOTH",
"582 11 OFFCURVE",
"571 0 OFFCURVE",
"550 0 CURVE SMOOTH",
"32 0 LINE SMOOTH",
"11 0 OFFCURVE",
"0 11 OFFCURVE",
"0 32 CURVE SMOOTH",
"0 388 LINE SMOOTH",
"0 410 OFFCURVE",
"11 421 OFFCURVE",
"32 421 CURVE SMOOTH",
"421 421 LINE",
"421 615 LINE SMOOTH",
"421 683 OFFCURVE",
"365 712 OFFCURVE",
"293 712 CURVE SMOOTH",
"222 712 OFFCURVE",
"162 678 OFFCURVE",
"162 610 CURVE SMOOTH",
"162 485 LINE",
"65 485 LINE",
"65 613 LINE",
"66 613 LINE",
"78 729 OFFCURVE",
"176 807 OFFCURVE",
"293 807 CURVE SMOOTH",
"410 807 OFFCURVE",
"504 710 OFFCURVE",
"515 593 CURVE",
"516 593 LINE",
"518 421 LINE",
"521 421 OFFCURVE",
"526 421 OFFCURVE",
"533 422 CURVE",
"547 422 OFFCURVE",
"549 422 OFFCURVE",
"561 420 CURVE SMOOTH",
"572 418 OFFCURVE",
"575 413 OFFCURVE",
"579 405 CURVE",
"581 400 OFFCURVE",
"582 395 OFFCURVE",
"582 388 CURVE SMOOTH"
);
}
);
width = 582;
}
);
unicode = 0077;
},
{
glyphname = x;
layers = (
{
layerId = "8EDAA7A7-1AFB-42B2-BF34-013D0EB3C3CC";
name = Regular;
paths = (
{
closed = 1;
nodes = (
"421 550 LINE SMOOTH",
"421 618 OFFCURVE",
"365 647 OFFCURVE",
"293 647 CURVE SMOOTH",
"222 647 OFFCURVE",
"162 613 OFFCURVE",
"162 545 CURVE SMOOTH",
"162 421 LINE",
"421 421 LINE"
);
},
{
closed = 1;
nodes = (
"582 32 LINE SMOOTH",
"582 11 OFFCURVE",
"571 0 OFFCURVE",
"550 0 CURVE SMOOTH",
"32 0 LINE SMOOTH",
"11 0 OFFCURVE",
"0 11 OFFCURVE",
"0 32 CURVE SMOOTH",
"0 388 LINE SMOOTH",
"0 401 OFFCURVE",
"5 410 OFFCURVE",
"10 415 CURVE",
"15 419 OFFCURVE",
"28 421 OFFCURVE",
"35 422 CURVE",
"38 422 OFFCURVE",
"44 422 OFFCURVE",
"51 422 CURVE",
"58 421 OFFCURVE",
"62 421 OFFCURVE",
"65 421 CURVE",
"65 548 LINE",
"66 548 LINE",
"78 664 OFFCURVE",
"176 742 OFFCURVE",
"293 742 CURVE SMOOTH",
"410 742 OFFCURVE",
"504 647 OFFCURVE",
"515 528 CURVE",
"516 528 LINE",
"518 421 LINE",
"521 421 OFFCURVE",
"526 421 OFFCURVE",
"533 422 CURVE",
"547 422 OFFCURVE",
"549 422 OFFCURVE",
"561 420 CURVE SMOOTH",
"572 418 OFFCURVE",
"575 413 OFFCURVE",
"579 405 CURVE",
"581 400 OFFCURVE",
"582 395 OFFCURVE",
"582 388 CURVE SMOOTH"
);
}
);
width = 582;
}
);
unicode = 0078;
},
{
glyphname = y;
layers = (
{
layerId = "8EDAA7A7-1AFB-42B2-BF34-013D0EB3C3CC";
name = Regular;
paths = (
{
closed = 1;
nodes = (
"611 -43 LINE SMOOTH",
"611 -57 OFFCURVE",
"605 -64 OFFCURVE",
"593 -64 CURVE SMOOTH",
"584 -64 OFFCURVE",
"575 -60 OFFCURVE",
"568 -53 CURVE",
"568 105 LINE",
"575 112 OFFCURVE",
"582 115 OFFCURVE",
"590 115 CURVE SMOOTH",
"604 115 OFFCURVE",
"611 107 OFFCURVE",
"611 90 CURVE SMOOTH"
);
},
{
closed = 1;
nodes = (
"802 59 LINE",
"757 59 LINE",
"757 87 LINE SMOOTH",
"757 105 OFFCURVE",
"765 114 OFFCURVE",
"780 114 CURVE SMOOTH",
"795 114 OFFCURVE",
"802 105 OFFCURVE",
"802 87 CURVE SMOOTH"
);
},
{
closed = 1;
nodes = (
"258 192 LINE",
"319 192 LINE",
"319 242 LINE",
"140 242 LINE",
"140 192 LINE",
"200 192 LINE",
"200 -101 LINE",
"258 -101 LINE"
);
},
{
closed = 1;
nodes = (
"414 -101 LINE",
"465 -101 LINE",
"465 152 LINE",
"414 152 LINE",
"414 -40 LINE",
"403 -53 OFFCURVE",
"392 -59 OFFCURVE",
"383 -59 CURVE SMOOTH",
"374 -59 OFFCURVE",
"370 -53 OFFCURVE",
"370 -42 CURVE SMOOTH",
"370 152 LINE",
"318 152 LINE",
"318 -61 LINE SMOOTH",
"318 -90 OFFCURVE",
"330 -105 OFFCURVE",
"354 -105 CURVE SMOOTH",
"374 -105 OFFCURVE",
"394 -94 OFFCURVE",
"414 -73 CURVE"
);
},
{
closed = 1;
nodes = (
"664 92 LINE SMOOTH",
"664 134 OFFCURVE",
"647 155 OFFCURVE",
"614 155 CURVE SMOOTH",
"597 155 OFFCURVE",
"582 147 OFFCURVE",
"568 132 CURVE",
"568 242 LINE",
"516 242 LINE",
"516 -101 LINE",
"568 -101 LINE",
"568 -81 LINE",
"583 -96 OFFCURVE",
"599 -104 OFFCURVE",
"617 -104 CURVE SMOOTH",
"648 -104 OFFCURVE",
"664 -85 OFFCURVE",
"664 -48 CURVE SMOOTH"
);
},
{
closed = 1;
nodes = (
"855 -10 LINE",
"802 -10 LINE",
"802 -11 OFFCURVE",
"802 -16 OFFCURVE",
"803 -23 CURVE",
"803 -38 OFFCURVE",
"803 -41 OFFCURVE",
"800 -50 CURVE SMOOTH",
"797 -59 OFFCURVE",
"791 -63 OFFCURVE",
"779 -63 CURVE SMOOTH",
"766 -63 OFFCURVE",
"758 -53 OFFCURVE",
"758 -45 CURVE",
"757 -41 OFFCURVE",
"757 -35 OFFCURVE",
"757 -28 CURVE SMOOTH",
"757 20 LINE",
"855 20 LINE",
"855 84 LINE SMOOTH",
"855 131 OFFCURVE",
"829 159 OFFCURVE",
"782 159 CURVE SMOOTH",
"737 159 OFFCURVE",
"703 129 OFFCURVE",
"703 84 CURVE SMOOTH",
"703 -29 LINE SMOOTH",
"703 -77 OFFCURVE",
"730 -108 OFFCURVE",
"778 -108 CURVE SMOOTH",
"829 -108 OFFCURVE",
"855 -82 OFFCURVE",
"855 -29 CURVE SMOOTH"
);
},
{
closed = 1;
nodes = (
"924 143 OFFCURVE",
"926 95 OFFCURVE",
"926 62 CURVE SMOOTH",
"926 -3 OFFCURVE",
"928 -123 OFFCURVE",
"882 -162 CURVE SMOOTH",
"859 -182 OFFCURVE",
"830 -193 OFFCURVE",
"797 -194 CURVE SMOOTH",
"731 -197 OFFCURVE",
"632 -199 OFFCURVE",
"500 -199 CURVE SMOOTH",
"367 -199 OFFCURVE",
"268 -197 OFFCURVE",
"203 -194 CURVE SMOOTH",
"136 -191 OFFCURVE",
"85 -150 OFFCURVE",
"80 -83 CURVE SMOOTH",
"76 -19 OFFCURVE",
"74 29 OFFCURVE",
"74 62 CURVE SMOOTH",
"74 127 OFFCURVE",
"73 247 OFFCURVE",
"119 287 CURVE SMOOTH",
"142 306 OFFCURVE",
"170 317 OFFCURVE",
"203 318 CURVE SMOOTH",
"268 321 OFFCURVE",
"367 323 OFFCURVE",
"500 323 CURVE SMOOTH",
"633 323 OFFCURVE",
"732 321 OFFCURVE",
"797 318 CURVE SMOOTH",
"864 315 OFFCURVE",
"915 274 OFFCURVE",
"920 207 CURVE SMOOTH"
);
},
{
closed = 1;
nodes = (
"315 801 LINE",
"388 801 LINE",
"333 636 LINE",
"330 628 OFFCURVE",
"327 619 OFFCURVE",
"323 609 CURVE SMOOTH",
"315 588 OFFCURVE",
"309 573 OFFCURVE",
"305 553 CURVE",
"305 377 LINE",
"233 377 LINE",
"233 545 LINE",
"232 553 OFFCURVE",
"222 581 OFFCURVE",
"204 630 CURVE SMOOTH",
"147 801 LINE",
"220 801 LINE",
"266 632 LINE",
"271 632 LINE"
);
},
{
closed = 1;
nodes = (
"505 621 LINE SMOOTH",
"505 634 OFFCURVE",
"490 644 OFFCURVE",
"477 644 CURVE SMOOTH",
"464 644 OFFCURVE",
"451 634 OFFCURVE",
"451 621 CURVE SMOOTH",
"451 450 LINE SMOOTH",
"451 433 OFFCURVE",
"460 424 OFFCURVE",
"477 424 CURVE SMOOTH",
"496 424 OFFCURVE",
"505 433 OFFCURVE",
"505 450 CURVE SMOOTH"
);
},
{
closed = 1;
nodes = (
"570 455 LINE SMOOTH",
"570 399 OFFCURVE",
"534 369 OFFCURVE",
"477 369 CURVE SMOOTH",
"422 369 OFFCURVE",
"385 403 OFFCURVE",
"385 456 CURVE SMOOTH",
"385 618 LINE SMOOTH",
"385 670 OFFCURVE",
"427 698 OFFCURVE",
"480 698 CURVE SMOOTH",
"531 698 OFFCURVE",
"570 666 OFFCURVE",
"570 617 CURVE SMOOTH"
);
},
{
closed = 1;
nodes = (
"807 690 LINE",
"807 377 LINE",
"743 377 LINE",
"743 412 LINE",
"718 386 OFFCURVE",
"694 373 OFFCURVE",
"669 373 CURVE SMOOTH",
"639 373 OFFCURVE",
"624 392 OFFCURVE",
"624 429 CURVE SMOOTH",
"624 690 LINE",
"688 690 LINE",
"688 450 LINE SMOOTH",
"688 436 OFFCURVE",
"694 429 OFFCURVE",
"705 429 CURVE SMOOTH",
"716 429 OFFCURVE",
"729 437 OFFCURVE",
"743 453 CURVE",
"743 690 LINE"
);
}
);
width = 1000;
}
);
unicode = 0079;
},
{
glyphname = z;
layers = (
{
layerId = "8EDAA7A7-1AFB-42B2-BF34-013D0EB3C3CC";
name = Regular;
paths = (
{
closed = 1;
nodes = (
"525 798 LINE SMOOTH",
"511 808 OFFCURVE",
"487 808 OFFCURVE",
"473 798 CURVE SMOOTH",
"20 496 LINE SMOOTH",
"6 487 OFFCURVE",
"-6 464 OFFCURVE",
"-6 447 CURVE SMOOTH",
"-6 405 LINE SMOOTH",
"-6 388 OFFCURVE",
"8 374 OFFCURVE",
"26 374 CURVE SMOOTH",
"47 374 LINE SMOOTH",
"64 374 OFFCURVE",
"78 359 OFFCURVE",
"78 342 CURVE SMOOTH",
"78 -163 LINE SMOOTH",
"78 -181 OFFCURVE",
"92 -195 OFFCURVE",
"110 -195 CURVE SMOOTH",
"387 -195 LINE",
"387 142 LINE",
"611 142 LINE",
"611 -195 LINE",
"889 -195 LINE SMOOTH",
"906 -195 OFFCURVE",
"920 -181 OFFCURVE",
"920 -163 CURVE SMOOTH",
"920 342 LINE SMOOTH",
"920 359 OFFCURVE",
"934 374 OFFCURVE",
"952 374 CURVE SMOOTH",
"973 374 LINE SMOOTH",
"990 374 OFFCURVE",
"1004 388 OFFCURVE",
"1004 405 CURVE SMOOTH",
"1004 447 LINE SMOOTH",
"1004 464 OFFCURVE",
"992 487 OFFCURVE",
"978 496 CURVE SMOOTH"
);
}
);
width = 1000;
}
);
unicode = 007A;
},
{
glyphname = zero;
layers = (
{
layerId = "8EDAA7A7-1AFB-42B2-BF34-013D0EB3C3CC";
name = Regular;
paths = (
{
closed = 1;
nodes = (
"188 -26 LINE",
"105 57 LINE",
"292 244 LINE",
"375 161 LINE"
);
},
{
closed = 1;
nodes = (
"812 -26 LINE",
"625 161 LINE",
"708 244 LINE",
"895 57 LINE"
);
},
{
closed = 1;
nodes = (
"292 494 LINE",
"105 681 LINE",
"188 764 LINE",
"375 577 LINE"
);
},
{
closed = 1;
nodes = (
"0 428 LINE",
"265 428 LINE",
"265 310 LINE",
"0 310 LINE"
);
},
{
closed = 1;
nodes = (
"735 310 LINE",
"735 428 LINE",
"1000 428 LINE",
"1000 310 LINE"
);
},
{
closed = 1;
nodes = (
"559 -131 LINE",
"441 -131 LINE",
"441 134 LINE",
"559 134 LINE"
);
},
{
closed = 1;
nodes = (
"559 604 LINE",
"441 604 LINE",
"441 869 LINE",
"559 869 LINE"
);
}
);
width = 1000;
}
);
unicode = 0030;
},
{
glyphname = one;
layers = (
{
layerId = "8EDAA7A7-1AFB-42B2-BF34-013D0EB3C3CC";
name = Regular;
paths = (
{
closed = 1;
nodes = (
"188 -26 LINE",
"105 57 LINE",
"292 244 LINE",
"375 161 LINE"
);
},
{
closed = 1;
nodes = (
"812 764 LINE",
"895 681 LINE",
"708 494 LINE",
"625 577 LINE"
);
},
{
closed = 1;
nodes = (
"812 -26 LINE",
"625 161 LINE",
"708 244 LINE",
"895 57 LINE"
);
},
{
closed = 1;
nodes = (
"292 494 LINE",
"105 681 LINE",
"188 764 LINE",
"375 577 LINE"
);
},
{
closed = 1;
nodes = (
"0 428 LINE",
"265 428 LINE",
"265 310 LINE",
"0 310 LINE"
);
},
{
closed = 1;
nodes = (
"559 -131 LINE",
"441 -131 LINE",
"441 134 LINE",
"559 134 LINE"
);
},
{
closed = 1;
nodes = (
"559 604 LINE",
"441 604 LINE",
"441 869 LINE",
"559 869 LINE"
);
}
);
width = 1000;
}
);
unicode = 0031;
},
{
glyphname = two;
layers = (
{
layerId = "8EDAA7A7-1AFB-42B2-BF34-013D0EB3C3CC";
name = Regular;
paths = (
{
closed = 1;
nodes = (
"188 -26 LINE",
"105 57 LINE",
"292 244 LINE",
"375 161 LINE"
);
},
{
closed = 1;
nodes = (
"812 764 LINE",
"895 681 LINE",
"708 494 LINE",
"625 577 LINE"
);
},
{
closed = 1;
nodes = (
"292 494 LINE",
"105 681 LINE",
"188 764 LINE",
"375 577 LINE"
);
},
{
closed = 1;
nodes = (
"0 428 LINE",
"265 428 LINE",
"265 310 LINE",
"0 310 LINE"
);
},
{
closed = 1;
nodes = (
"735 310 LINE",
"735 428 LINE",
"1000 428 LINE",
"1000 310 LINE"
);
},
{
closed = 1;
nodes = (
"559 -131 LINE",
"441 -131 LINE",
"441 134 LINE",
"559 134 LINE"
);
},
{
closed = 1;
nodes = (
"559 604 LINE",
"441 604 LINE",
"441 869 LINE",
"559 869 LINE"
);
}
);
width = 1000;
}
);
unicode = 0032;
},
{
glyphname = three;
layers = (
{
layerId = "8EDAA7A7-1AFB-42B2-BF34-013D0EB3C3CC";
name = Regular;
paths = (
{
closed = 1;
nodes = (
"188 -26 LINE",
"105 57 LINE",
"292 244 LINE",
"375 161 LINE"
);
},
{
closed = 1;
nodes = (
"812 764 LINE",
"895 681 LINE",
"708 494 LINE",
"625 577 LINE"
);
},
{
closed = 1;
nodes = (
"812 -26 LINE",
"625 161 LINE",
"708 244 LINE",
"895 57 LINE"
);
},
{
closed = 1;
nodes = (
"292 494 LINE",
"105 681 LINE",
"188 764 LINE",
"375 577 LINE"
);
},
{
closed = 1;
nodes = (
"0 428 LINE",
"265 428 LINE",
"265 310 LINE",
"0 310 LINE"
);
},
{
closed = 1;
nodes = (
"735 310 LINE",
"735 428 LINE",
"1000 428 LINE",
"1000 310 LINE"
);
},
{
closed = 1;
nodes = (
"559 604 LINE",
"441 604 LINE",
"441 869 LINE",
"559 869 LINE"
);
}
);
width = 1000;
}
);
unicode = 0033;
},
{
glyphname = four;
layers = (
{
layerId = "8EDAA7A7-1AFB-42B2-BF34-013D0EB3C3CC";
name = Regular;
paths = (
{
closed = 1;
nodes = (
"812 764 LINE",
"895 681 LINE",
"708 494 LINE",
"625 577 LINE"
);
},
{
closed = 1;
nodes = (
"812 -26 LINE",
"625 161 LINE",
"708 244 LINE",
"895 57 LINE"
);
},
{
closed = 1;
nodes = (
"292 494 LINE",
"105 681 LINE",
"188 764 LINE",
"375 577 LINE"
);
},
{
closed = 1;
nodes = (
"0 428 LINE",
"265 428 LINE",
"265 310 LINE",
"0 310 LINE"
);
},
{
closed = 1;
nodes = (
"735 310 LINE",
"735 428 LINE",
"1000 428 LINE",
"1000 310 LINE"
);
},
{
closed = 1;
nodes = (
"559 -131 LINE",
"441 -131 LINE",
"441 134 LINE",
"559 134 LINE"
);
},
{
closed = 1;
nodes = (
"559 604 LINE",
"441 604 LINE",
"441 869 LINE",
"559 869 LINE"
);
}
);
width = 1000;
}
);
unicode = 0034;
},
{
glyphname = five;
layers = (
{
layerId = "8EDAA7A7-1AFB-42B2-BF34-013D0EB3C3CC";
name = Regular;
paths = (
{
closed = 1;
nodes = (
"188 -26 LINE",
"105 57 LINE",
"292 244 LINE",
"375 161 LINE"
);
},
{
closed = 1;
nodes = (
"812 764 LINE",
"895 681 LINE",
"708 494 LINE",
"625 577 LINE"
);
},
{
closed = 1;
nodes = (
"812 -26 LINE",
"625 161 LINE",
"708 244 LINE",
"895 57 LINE"
);
},
{
closed = 1;
nodes = (
"292 494 LINE",
"105 681 LINE",
"188 764 LINE",
"375 577 LINE"
);
},
{
closed = 1;
nodes = (
"735 310 LINE",
"735 428 LINE",
"1000 428 LINE",
"1000 310 LINE"
);
},
{
closed = 1;
nodes = (
"559 -131 LINE",
"441 -131 LINE",
"441 134 LINE",
"559 134 LINE"
);
},
{
closed = 1;
nodes = (
"559 604 LINE",
"441 604 LINE",
"441 869 LINE",
"559 869 LINE"
);
}
);
width = 1000;
}
);
unicode = 0035;
},
{
glyphname = six;
layers = (
{
layerId = "8EDAA7A7-1AFB-42B2-BF34-013D0EB3C3CC";
name = Regular;
paths = (
{
closed = 1;
nodes = (
"188 -26 LINE",
"105 57 LINE",
"292 244 LINE",
"375 161 LINE"
);
},
{
closed = 1;
nodes = (
"812 764 LINE",
"895 681 LINE",
"708 494 LINE",
"625 577 LINE"
);
},
{
closed = 1;
nodes = (
"812 -26 LINE",
"625 161 LINE",
"708 244 LINE",
"895 57 LINE"
);
},
{
closed = 1;
nodes = (
"0 428 LINE",
"265 428 LINE",
"265 310 LINE",
"0 310 LINE"
);
},
{
closed = 1;
nodes = (
"735 310 LINE",
"735 428 LINE",
"1000 428 LINE",
"1000 310 LINE"
);
},
{
closed = 1;
nodes = (
"559 -131 LINE",
"441 -131 LINE",
"441 134 LINE",
"559 134 LINE"
);
},
{
closed = 1;
nodes = (
"559 604 LINE",
"441 604 LINE",
"441 869 LINE",
"559 869 LINE"
);
}
);
width = 1000;
}
);
unicode = 0036;
},
{
glyphname = seven;
layers = (
{
layerId = "8EDAA7A7-1AFB-42B2-BF34-013D0EB3C3CC";
name = Regular;
paths = (
{
closed = 1;
nodes = (
"188 -26 LINE",
"105 57 LINE",
"292 244 LINE",
"375 161 LINE"
);
},
{
closed = 1;
nodes = (
"812 764 LINE",
"895 681 LINE",
"708 494 LINE",
"625 577 LINE"
);
},
{
closed = 1;
nodes = (
"812 -26 LINE",
"625 161 LINE",
"708 244 LINE",
"895 57 LINE"
);
},
{
closed = 1;
nodes = (
"292 494 LINE",
"105 681 LINE",
"188 764 LINE",
"375 577 LINE"
);
},
{
closed = 1;
nodes = (
"0 428 LINE",
"265 428 LINE",
"265 310 LINE",
"0 310 LINE"
);
},
{
closed = 1;
nodes = (
"735 310 LINE",
"735 428 LINE",
"1000 428 LINE",
"1000 310 LINE"
);
},
{
closed = 1;
nodes = (
"559 -131 LINE",
"441 -131 LINE",
"441 134 LINE",
"559 134 LINE"
);
}
);
width = 1000;
}
);
unicode = 0037;
},
{
glyphname = uni00B2;
layers = (
{
layerId = "8EDAA7A7-1AFB-42B2-BF34-013D0EB3C3CC";
name = Regular;
paths = (
{
closed = 1;
nodes = (
"1000 -39 LINE",
"1000 -199 LINE",
"0 -199 LINE",
"0 -39 LINE"
);
},
{
closed = 1;
nodes = (
"1000 241 LINE",
"1000 81 LINE",
"0 81 LINE",
"0 241 LINE"
);
},
{
closed = 1;
nodes = (
"1000 521 LINE",
"1000 361 LINE",
"0 361 LINE",
"0 521 LINE"
);
},
{
closed = 1;
nodes = (
"1000 801 LINE",
"1000 641 LINE",
"0 641 LINE",
"0 801 LINE"
);
}
);
width = 1000;
}
);
unicode = 00B2;
},
{
glyphname = uni00B3;
layers = (
{
layerId = "8EDAA7A7-1AFB-42B2-BF34-013D0EB3C3CC";
name = Regular;
paths = (
{
closed = 1;
nodes = (
"120 -79 LINE",
"320 -79 LINE",
"320 121 LINE",
"120 121 LINE"
);
},
{
closed = 1;
nodes = (
"440 241 LINE",
"440 -199 LINE",
"0 -199 LINE",
"0 241 LINE"
);
},
{
closed = 1;
nodes = (
"1000 -39 LINE",
"1000 -199 LINE",
"560 -199 LINE",
"560 -39 LINE"
);
},
{
closed = 1;
nodes = (
"120 481 LINE",
"320 481 LINE",
"320 681 LINE",
"120 681 LINE"
);
},
{
closed = 1;
nodes = (
"440 801 LINE",
"440 361 LINE",
"0 361 LINE",
"0 801 LINE"
);
},
{
closed = 1;
nodes = (
"1000 241 LINE",
"1000 81 LINE",
"560 81 LINE",
"560 241 LINE"
);
},
{
closed = 1;
nodes = (
"1000 521 LINE",
"1000 361 LINE",
"560 361 LINE",
"560 521 LINE"
);
},
{
closed = 1;
nodes = (
"1000 801 LINE",
"1000 641 LINE",
"560 641 LINE",
"560 801 LINE"
);
}
);
width = 1000;
}
);
unicode = 00B3;
},
{
glyphname = uni00B9;
layers = (
{
layerId = "8EDAA7A7-1AFB-42B2-BF34-013D0EB3C3CC";
name = Regular;
paths = (
{
closed = 1;
nodes = (
"120 -79 LINE",
"320 -79 LINE",
"320 121 LINE",
"120 121 LINE"
);
},
{
closed = 1;
nodes = (
"440 241 LINE",
"440 -199 LINE",
"0 -199 LINE",
"0 241 LINE"
);
},
{
closed = 1;
nodes = (
"680 -79 LINE",
"880 -79 LINE",
"880 121 LINE",
"680 121 LINE"
);
},
{
closed = 1;
nodes = (
"1000 241 LINE",
"1000 -199 LINE",
"560 -199 LINE",
"560 241 LINE"
);
},
{
closed = 1;
nodes = (
"120 481 LINE",
"320 481 LINE",
"320 681 LINE",
"120 681 LINE"
);
},
{
closed = 1;
nodes = (
"440 801 LINE",
"440 361 LINE",
"0 361 LINE",
"0 801 LINE"
);
},
{
closed = 1;
nodes = (
"680 481 LINE",
"880 481 LINE",
"880 681 LINE",
"680 681 LINE"
);
},
{
closed = 1;
nodes = (
"1000 801 LINE",
"1000 361 LINE",
"560 361 LINE",
"560 801 LINE"
);
}
);
width = 1000;
}
);
unicode = 00B9;
},
{
glyphname = asterisk;
layers = (
{
layerId = "8EDAA7A7-1AFB-42B2-BF34-013D0EB3C3CC";
name = Regular;
paths = (
{
closed = 1;
nodes = (
"740 220 LINE",
"920 400 LINE",
"800 400 LINE",
"760 523 OFFCURVE",
"626 613 OFFCURVE",
"495 613 CURVE SMOOTH",
"320 613 OFFCURVE",
"178 472 OFFCURVE",
"178 297 CURVE SMOOTH",
"178 122 OFFCURVE",
"320 -19 OFFCURVE",
"495 -19 CURVE SMOOTH",
"582 -19 OFFCURVE",
"657 12 OFFCURVE",
"718 73 CURVE",
"656 144 LINE",
"612 101 OFFCURVE",
"560 80 OFFCURVE",
"500 80 CURVE SMOOTH",
"379 80 OFFCURVE",
"280 179 OFFCURVE",
"280 300 CURVE SMOOTH",
"280 421 OFFCURVE",
"379 520 OFFCURVE",
"500 520 CURVE SMOOTH",
"563 520 OFFCURVE",
"615 499 OFFCURVE",
"656 456 CURVE SMOOTH",
"667 445 OFFCURVE",
"670 435 OFFCURVE",
"674 419 CURVE SMOOTH",
"676 411 OFFCURVE",
"678 405 OFFCURVE",
"680 400 CURVE",
"560 400 LINE"
);
},
{
closed = 1;
nodes = (
"978 474 OFFCURVE",
"1000 391 OFFCURVE",
"1000 300 CURVE SMOOTH",
"1000 119 OFFCURVE",
"904 -44 OFFCURVE",
"751 -133 CURVE SMOOTH",
"674 -178 OFFCURVE",
"591 -200 OFFCURVE",
"500 -200 CURVE SMOOTH",
"319 -200 OFFCURVE",
"156 -104 OFFCURVE",
"67 49 CURVE SMOOTH",
"22 126 OFFCURVE",
"0 209 OFFCURVE",
"0 300 CURVE SMOOTH",
"0 481 OFFCURVE",
"96 644 OFFCURVE",
"249 733 CURVE SMOOTH",
"326 778 OFFCURVE",
"409 800 OFFCURVE",
"500 800 CURVE SMOOTH",
"681 800 OFFCURVE",
"844 704 OFFCURVE",
"933 551 CURVE SMOOTH"
);
}
);
width = 1000;
}
);
unicode = 002A;
},
{
glyphname = backslash;
layers = (
{
layerId = "8EDAA7A7-1AFB-42B2-BF34-013D0EB3C3CC";
name = Regular;
paths = (
{
closed = 1;
nodes = (
"191 526 LINE",
"142 459 OFFCURVE",
"117 384 OFFCURVE",
"117 300 CURVE SMOOTH",
"117 89 OFFCURVE",
"289 -83 OFFCURVE",
"500 -83 CURVE SMOOTH",
"584 -83 OFFCURVE",
"659 -58 OFFCURVE",
"726 -9 CURVE"
);
},
{
closed = 1;
nodes = (
"883 511 OFFCURVE",
"711 683 OFFCURVE",
"500 683 CURVE SMOOTH",
"416 683 OFFCURVE",
"341 658 OFFCURVE",
"274 609 CURVE",
"809 74 LINE",
"858 141 OFFCURVE",
"883 216 OFFCURVE",
"883 300 CURVE SMOOTH"
);
},
{
closed = 1;
nodes = (
"978 474 OFFCURVE",
"1000 391 OFFCURVE",
"1000 300 CURVE SMOOTH",
"1000 119 OFFCURVE",
"904 -44 OFFCURVE",
"751 -133 CURVE SMOOTH",
"674 -178 OFFCURVE",
"591 -200 OFFCURVE",
"500 -200 CURVE SMOOTH",
"319 -200 OFFCURVE",
"156 -104 OFFCURVE",
"67 49 CURVE SMOOTH",
"22 126 OFFCURVE",
"0 209 OFFCURVE",
"0 300 CURVE SMOOTH",
"0 481 OFFCURVE",
"96 644 OFFCURVE",
"249 733 CURVE SMOOTH",
"326 778 OFFCURVE",
"409 800 OFFCURVE",
"500 800 CURVE SMOOTH",
"681 800 OFFCURVE",
"844 704 OFFCURVE",
"933 551 CURVE SMOOTH"
);
}
);
width = 1000;
}
);
unicode = 005C;
},
{
glyphname = colon;
layers = (
{
layerId = "8EDAA7A7-1AFB-42B2-BF34-013D0EB3C3CC";
name = Regular;
paths = (
{
closed = 1;
nodes = (
"661 182 LINE",
"732 253 LINE",
"500 486 LINE",
"268 253 LINE",
"339 182 LINE",
"500 343 LINE"
);
},
{
closed = 1;
nodes = (
"978 474 OFFCURVE",
"1000 391 OFFCURVE",
"1000 300 CURVE SMOOTH",
"1000 119 OFFCURVE",
"904 -44 OFFCURVE",
"751 -133 CURVE SMOOTH",
"674 -178 OFFCURVE",
"591 -200 OFFCURVE",
"500 -200 CURVE SMOOTH",
"319 -200 OFFCURVE",
"156 -104 OFFCURVE",
"67 49 CURVE SMOOTH",
"22 126 OFFCURVE",
"0 209 OFFCURVE",
"0 300 CURVE SMOOTH",
"0 481 OFFCURVE",
"96 644 OFFCURVE",
"249 733 CURVE SMOOTH",
"326 778 OFFCURVE",
"409 800 OFFCURVE",
"500 800 CURVE SMOOTH",
"681 800 OFFCURVE",
"844 704 OFFCURVE",
"933 551 CURVE SMOOTH"
);
}
);
width = 1000;
}
);
unicode = 003A;
},
{
glyphname = comma;
layers = (
{
layerId = "8EDAA7A7-1AFB-42B2-BF34-013D0EB3C3CC";
name = Regular;
paths = (
{
closed = 1;
nodes = (
"825 477 OFFCURVE",
"868 520 OFFCURVE",
"868 573 CURVE SMOOTH",
"868 625 OFFCURVE",
"825 668 OFFCURVE",
"773 668 CURVE SMOOTH",
"720 668 OFFCURVE",
"677 625 OFFCURVE",
"677 573 CURVE SMOOTH",
"677 520 OFFCURVE",
"720 477 OFFCURVE",
"773 477 CURVE SMOOTH"
);
},
{
closed = 1;
nodes = (
"1000 665 LINE",
"1000 395 LINE",
"405 -200 LINE",
"0 205 LINE",
"595 800 LINE",
"865 800 LINE"
);
}
);
width = 1000;
}
);
unicode = 002C;
},
{
glyphname = numbersign;
layers = (
{
layerId = "8EDAA7A7-1AFB-42B2-BF34-013D0EB3C3CC";
name = Regular;
paths = (
{
closed = 1;
nodes = (
"172 285 LINE SMOOTH",
"195 285 OFFCURVE",
"207 276 OFFCURVE",
"207 259 CURVE SMOOTH",
"207 242 OFFCURVE",
"193 233 OFFCURVE",
"165 233 CURVE SMOOTH",
"149 233 LINE",
"149 285 LINE"
);
},
{
closed = 1;
nodes = (
"157 378 LINE SMOOTH",
"179 378 OFFCURVE",
"190 370 OFFCURVE",
"190 355 CURVE SMOOTH",
"190 340 OFFCURVE",
"179 332 OFFCURVE",
"156 332 CURVE SMOOTH",
"149 332 LINE",
"149 378 LINE"
);
},
{
closed = 1;
nodes = (
"265 -112 LINE",
"327 -112 LINE",
"327 129 LINE",
"265 129 LINE",
"265 -19 LINE",
"264 -19 LINE",
"149 129 LINE",
"87 129 LINE",
"87 -112 LINE",
"149 -112 LINE",
"149 35 LINE",
"150 35 LINE"
);
},
{
closed = 1;
nodes = (
"388 -112 LINE",
"451 -112 LINE",
"451 129 LINE",
"388 129 LINE"
);
},
{
closed = 1;
nodes = (
"270 289 OFFCURVE",
"254 309 OFFCURVE",
"221 314 CURVE",
"239 323 OFFCURVE",
"248 340 OFFCURVE",
"248 363 CURVE SMOOTH",
"248 405 OFFCURVE",
"224 426 OFFCURVE",
"176 426 CURVE SMOOTH",
"87 426 LINE",
"87 185 LINE",
"183 185 LINE SMOOTH",
"232 185 OFFCURVE",
"270 205 OFFCURVE",
"270 252 CURVE SMOOTH"
);
},
{
closed = 1;
nodes = (
"684 -32 LINE",
"670 -49 OFFCURVE",
"652 -58 OFFCURVE",
"630 -58 CURVE SMOOTH",
"591 -58 OFFCURVE",
"565 -31 OFFCURVE",
"565 8 CURVE SMOOTH",
"565 45 OFFCURVE",
"592 74 OFFCURVE",
"629 74 CURVE SMOOTH",
"652 74 OFFCURVE",
"671 65 OFFCURVE",
"684 48 CURVE",
"684 123 LINE",
"663 131 OFFCURVE",
"644 135 OFFCURVE",
"627 135 CURVE SMOOTH",
"556 135 OFFCURVE",
"500 77 OFFCURVE",
"500 8 CURVE SMOOTH",
"500 -64 OFFCURVE",
"557 -118 OFFCURVE",
"629 -118 CURVE SMOOTH",
"644 -118 OFFCURVE",
"662 -114 OFFCURVE",
"684 -107 CURVE"
);
},
{
closed = 1;
nodes = (
"309 185 LINE",
"446 185 LINE",
"446 238 LINE",
"372 238 LINE",
"372 280 LINE",
"442 280 LINE",
"442 333 LINE",
"372 333 LINE",
"372 373 LINE",
"446 373 LINE",
"446 426 LINE",
"309 426 LINE"
);
},
{
closed = 1;
nodes = (
"222 723 LINE",
"86 723 LINE",
"86 672 LINE",
"160 672 LINE",
"160 560 LINE SMOOTH",
"160 539 OFFCURVE",
"154 529 OFFCURVE",
"142 529 CURVE SMOOTH",
"135 529 OFFCURVE",
"126 535 OFFCURVE",
"115 548 CURVE",
"81 512 LINE",
"96 488 OFFCURVE",
"117 476 OFFCURVE",
"143 476 CURVE SMOOTH",
"194 476 OFFCURVE",
"222 509 OFFCURVE",
"222 561 CURVE SMOOTH"
);
},
{
closed = 1;
nodes = (
"740 -112 LINE",
"877 -112 LINE",
"877 -59 LINE",
"802 -59 LINE",
"802 -18 LINE",
"873 -18 LINE",
"873 35 LINE",
"802 35 LINE",
"802 76 LINE",
"877 76 LINE",
"877 129 LINE",
"740 129 LINE"
);
},
{
closed = 1;
nodes = (
"484 723 LINE",
"421 723 LINE",
"421 597 LINE SMOOTH",
"421 570 OFFCURVE",
"420 557 OFFCURVE",
"407 542 CURVE",
"400 535 OFFCURVE",
"391 531 OFFCURVE",
"379 531 CURVE SMOOTH",
"343 531 OFFCURVE",
"336 556 OFFCURVE",
"336 597 CURVE SMOOTH",
"336 723 LINE",
"273 723 LINE",
"273 588 LINE SMOOTH",
"273 512 OFFCURVE",
"303 476 OFFCURVE",
"379 476 CURVE SMOOTH",
"454 476 OFFCURVE",
"484 512 OFFCURVE",
"484 588 CURVE SMOOTH"
);
},
{
closed = 1;
nodes = (
"697 600 OFFCURVE",
"670 622 OFFCURVE",
"645 628 CURVE SMOOTH",
"620 634 OFFCURVE",
"593 642 OFFCURVE",
"593 657 CURVE SMOOTH",
"593 670 OFFCURVE",
"607 677 OFFCURVE",
"620 677 CURVE SMOOTH",
"635 677 OFFCURVE",
"649 672 OFFCURVE",
"662 661 CURVE",
"687 710 LINE",
"664 723 OFFCURVE",
"638 730 OFFCURVE",
"611 730 CURVE SMOOTH",
"563 730 OFFCURVE",
"528 697 OFFCURVE",
"528 649 CURVE SMOOTH",
"528 610 OFFCURVE",
"554 589 OFFCURVE",
"580 585 CURVE",
"606 580 OFFCURVE",
"631 571 OFFCURVE",
"631 554 CURVE SMOOTH",
"631 538 OFFCURVE",
"617 529 OFFCURVE",
"601 529 CURVE SMOOTH",
"584 529 OFFCURVE",
"566 537 OFFCURVE",
"545 554 CURVE",
"519 504 LINE",
"544 485 OFFCURVE",
"572 476 OFFCURVE",
"603 476 CURVE SMOOTH",
"660 476 OFFCURVE",
"697 507 OFFCURVE",
"697 564 CURVE SMOOTH"
);
},
{
closed = 1;
nodes = (
"838 670 LINE",
"890 670 LINE",
"890 723 LINE",
"724 723 LINE",
"724 670 LINE",
"775 670 LINE",
"775 483 LINE",
"838 483 LINE"
);
},
{
closed = 1;
nodes = (
"965 801 LINE",
"965 -199 LINE",
"0 -199 LINE",
"0 801 LINE"
);
}
);
width = 965;
}
);
unicode = 0023;
},
{
glyphname = period;
layers = (
{
layerId = "8EDAA7A7-1AFB-42B2-BF34-013D0EB3C3CC";
name = Regular;
paths = (
{
closed = 1;
nodes = (
"1012 581 OFFCURVE",
"812 331 OFFCURVE",
"579 -21 CURVE SMOOTH",
"502 -140 OFFCURVE",
"464 -200 OFFCURVE",
"464 -200 CURVE",
"368 -80 OFFCURVE",
"213 87 OFFCURVE",
"0 300 CURVE",
"107 407 LINE",
"393 157 LINE",
"593 357 OFFCURVE",
"776 528 OFFCURVE",
"878 616 CURVE SMOOTH",
"929 660 OFFCURVE",
"972 697 OFFCURVE",
"1009 727 CURVE SMOOTH",
"1046 757 OFFCURVE",
"1071 777 OFFCURVE",
"1086 786 CURVE",
"1107 800 LINE",
"1110 800 OFFCURVE",
"1113 799 OFFCURVE",
"1118 798 CURVE SMOOTH",
"1123 797 OFFCURVE",
"1131 790 OFFCURVE",
"1144 779 CURVE",
"1157 767 OFFCURVE",
"1168 750 OFFCURVE",
"1179 729 CURVE"
);
}
);
width = 1179;
}
);
unicode = 002E;
},
{
glyphname = question;
layers = (
{
layerId = "8EDAA7A7-1AFB-42B2-BF34-013D0EB3C3CC";
name = Regular;
paths = (
{
closed = 1;
nodes = (
"407 836 OFFCURVE",
"176 836 OFFCURVE",
"35 692 CURVE SMOOTH",
"-108 551 OFFCURVE",
"-108 320 OFFCURVE",
"35 178 CURVE SMOOTH",
"537 -324 OFFCURVE",
"47 -324 OFFCURVE",
"550 178 CURVE SMOOTH",
"692 320 OFFCURVE",
"692 551 OFFCURVE",
"550 692 CURVE SMOOTH"
);
},
{
closed = 1;
nodes = (
"344 252 OFFCURVE",
"240 252 OFFCURVE",
"174 317 CURVE SMOOTH",
"109 383 OFFCURVE",
"109 488 OFFCURVE",
"174 553 CURVE SMOOTH",
"240 617 OFFCURVE",
"344 617 OFFCURVE",
"410 553 CURVE SMOOTH",
"475 488 OFFCURVE",
"475 383 OFFCURVE",
"410 317 CURVE SMOOTH"
);
}
);
width = 586;
}
);
unicode = 003F;
},
{
glyphname = quotesingle;
layers = (
{
layerId = "8EDAA7A7-1AFB-42B2-BF34-013D0EB3C3CC";
name = Regular;
paths = (
{
closed = 1;
nodes = (
"654 300 LINE",
"1000 -46 LINE",
"846 -200 LINE",
"500 146 LINE",
"154 -200 LINE",
"0 -46 LINE",
"346 300 LINE",
"0 646 LINE",
"154 800 LINE",
"500 454 LINE",
"846 800 LINE",
"1000 646 LINE"
);
}
);
width = 1000;
}
);
unicode = 0027;
},
{
glyphname = semicolon;
layers = (
{
layerId = "8EDAA7A7-1AFB-42B2-BF34-013D0EB3C3CC";
name = Regular;
paths = (
{
closed = 1;
nodes = (
"500 114 LINE",
"732 347 LINE",
"661 418 LINE",
"500 257 LINE",
"339 418 LINE",
"268 347 LINE"
);
},
{
closed = 1;
nodes = (
"978 474 OFFCURVE",
"1000 391 OFFCURVE",
"1000 300 CURVE SMOOTH",
"1000 119 OFFCURVE",
"904 -44 OFFCURVE",
"751 -133 CURVE SMOOTH",
"674 -178 OFFCURVE",
"591 -200 OFFCURVE",
"500 -200 CURVE SMOOTH",
"319 -200 OFFCURVE",
"156 -104 OFFCURVE",
"67 49 CURVE SMOOTH",
"22 126 OFFCURVE",
"0 209 OFFCURVE",
"0 300 CURVE SMOOTH",
"0 481 OFFCURVE",
"96 644 OFFCURVE",
"249 733 CURVE SMOOTH",
"326 778 OFFCURVE",
"409 800 OFFCURVE",
"500 800 CURVE SMOOTH",
"681 800 OFFCURVE",
"844 704 OFFCURVE",
"933 551 CURVE SMOOTH"
);
}
);
width = 1000;
}
);
unicode = 003B;
},
{
glyphname = slash;
layers = (
{
layerId = "8EDAA7A7-1AFB-42B2-BF34-013D0EB3C3CC";
name = Regular;
paths = (
{
closed = 1;
nodes = (
"260 354 LINE",
"206 301 LINE",
"301 206 OFFCURVE",
"385 114 OFFCURVE",
"416 78 CURVE SMOOTH",
"438 52 LINE",
"443 61 OFFCURVE",
"451 73 OFFCURVE",
"460 88 CURVE SMOOTH",
"479 118 OFFCURVE",
"545 218 OFFCURVE",
"600 292 CURVE SMOOTH",
"655 366 OFFCURVE",
"734 462 OFFCURVE",
"794 515 CURVE",
"782 538 OFFCURVE",
"770 550 OFFCURVE",
"758 550 CURVE",
"751 546 OFFCURVE",
"741 539 OFFCURVE",
"726 528 CURVE SMOOTH",
"711 517 OFFCURVE",
"674 485 OFFCURVE",
"613 431 CURVE SMOOTH",
"552 376 OFFCURVE",
"481 309 OFFCURVE",
"402 230 CURVE"
);
},
{
closed = 1;
nodes = (
"326 779 OFFCURVE",
"409 801 OFFCURVE",
"500 801 CURVE SMOOTH",
"681 801 OFFCURVE",
"844 705 OFFCURVE",
"933 552 CURVE SMOOTH",
"978 475 OFFCURVE",
"1000 392 OFFCURVE",
"1000 301 CURVE SMOOTH",
"1000 120 OFFCURVE",
"904 -43 OFFCURVE",
"751 -132 CURVE SMOOTH",
"674 -177 OFFCURVE",
"591 -199 OFFCURVE",
"500 -199 CURVE SMOOTH",
"319 -199 OFFCURVE",
"156 -103 OFFCURVE",
"67 50 CURVE SMOOTH",
"22 127 OFFCURVE",
"0 210 OFFCURVE",
"0 301 CURVE SMOOTH",
"0 482 OFFCURVE",
"96 645 OFFCURVE",
"249 734 CURVE SMOOTH"
);
}
);
width = 1000;
}
);
unicode = 002F;
},
{
glyphname = underscore;
layers = (
{
layerId = "8EDAA7A7-1AFB-42B2-BF34-013D0EB3C3CC";
name = Regular;
paths = (
{
closed = 1;
nodes = (
"160 277 LINE",
"477 412 LINE",
"477 508 LINE",
"160 642 LINE",
"160 543 LINE",
"369 459 LINE",
"160 376 LINE"
);
},
{
closed = 1;
nodes = (
"522 200 LINE",
"840 200 LINE",
"840 277 LINE",
"522 277 LINE"
);
},
{
closed = 1;
nodes = (
"1360 800 LINE",
"1360 -200 LINE",
"0 -200 LINE",
"0 800 LINE"
);
}
);
width = 1360;
}
);
unicode = 005F;
},
{
glyphname = braceleft;
layers = (
{
layerId = "8EDAA7A7-1AFB-42B2-BF34-013D0EB3C3CC";
name = Regular;
paths = (
{
closed = 1;
nodes = (
"235 182 LINE",
"0 418 LINE",
"471 418 LINE"
);
}
);
width = 471;
}
);
unicode = 007B;
},
{
glyphname = braceright;
layers = (
{
layerId = "8EDAA7A7-1AFB-42B2-BF34-013D0EB3C3CC";
name = Regular;
paths = (
{
closed = 1;
nodes = (
"471 182 LINE",
"0 182 LINE",
"235 418 LINE"
);
}
);
width = 471;
}
);
unicode = 007D;
},
{
glyphname = bracketleft;
layers = (
{
layerId = "8EDAA7A7-1AFB-42B2-BF34-013D0EB3C3CC";
name = Regular;
paths = (
{
closed = 1;
nodes = (
"265 35 LINE",
"0 565 LINE",
"529 565 LINE"
);
}
);
width = 529;
}
);
unicode = 005B;
},
{
glyphname = bracketright;
layers = (
{
layerId = "8EDAA7A7-1AFB-42B2-BF34-013D0EB3C3CC";
name = Regular;
paths = (
{
closed = 1;
nodes = (
"529 300 LINE",
"0 35 LINE",
"0 565 LINE"
);
}
);
width = 529;
}
);
unicode = 005D;
},
{
glyphname = parenleft;
layers = (
{
layerId = "8EDAA7A7-1AFB-42B2-BF34-013D0EB3C3CC";
name = Regular;
paths = (
{
closed = 1;
nodes = (
"547 68 LINE",
"618 139 LINE",
"457 300 LINE",
"618 461 LINE",
"547 532 LINE",
"314 300 LINE"
);
},
{
closed = 1;
nodes = (
"978 474 OFFCURVE",
"1000 391 OFFCURVE",
"1000 300 CURVE SMOOTH",
"1000 119 OFFCURVE",
"904 -44 OFFCURVE",
"751 -133 CURVE SMOOTH",
"674 -178 OFFCURVE",
"591 -200 OFFCURVE",
"500 -200 CURVE SMOOTH",
"319 -200 OFFCURVE",
"156 -104 OFFCURVE",
"67 49 CURVE SMOOTH",
"22 126 OFFCURVE",
"0 209 OFFCURVE",
"0 300 CURVE SMOOTH",
"0 481 OFFCURVE",
"96 644 OFFCURVE",
"249 733 CURVE SMOOTH",
"326 778 OFFCURVE",
"409 800 OFFCURVE",
"500 800 CURVE SMOOTH",
"681 800 OFFCURVE",
"844 704 OFFCURVE",
"933 551 CURVE SMOOTH"
);
}
);
width = 1000;
}
);
unicode = 0028;
},
{
glyphname = parenright;
layers = (
{
layerId = "8EDAA7A7-1AFB-42B2-BF34-013D0EB3C3CC";
name = Regular;
paths = (
{
closed = 1;
nodes = (
"453 68 LINE",
"686 300 LINE",
"453 532 LINE",
"382 461 LINE",
"543 300 LINE",
"382 139 LINE"
);
},
{
closed = 1;
nodes = (
"978 474 OFFCURVE",
"1000 391 OFFCURVE",
"1000 300 CURVE SMOOTH",
"1000 119 OFFCURVE",
"904 -44 OFFCURVE",
"751 -133 CURVE SMOOTH",
"674 -178 OFFCURVE",
"591 -200 OFFCURVE",
"500 -200 CURVE SMOOTH",
"319 -200 OFFCURVE",
"156 -104 OFFCURVE",
"67 49 CURVE SMOOTH",
"22 126 OFFCURVE",
"0 209 OFFCURVE",
"0 300 CURVE SMOOTH",
"0 481 OFFCURVE",
"96 644 OFFCURVE",
"249 733 CURVE SMOOTH",
"326 778 OFFCURVE",
"409 800 OFFCURVE",
"500 800 CURVE SMOOTH",
"681 800 OFFCURVE",
"844 704 OFFCURVE",
"933 551 CURVE SMOOTH"
);
}
);
width = 1000;
}
);
unicode = 0029;
},
{
glyphname = hyphen;
layers = (
{
layerId = "8EDAA7A7-1AFB-42B2-BF34-013D0EB3C3CC";
name = Regular;
paths = (
{
closed = 1;
nodes = (
"206 242 LINE",
"795 242 LINE",
"795 360 LINE",
"206 360 LINE"
);
},
{
closed = 1;
nodes = (
"978 474 OFFCURVE",
"1000 391 OFFCURVE",
"1000 300 CURVE SMOOTH",
"1000 119 OFFCURVE",
"904 -44 OFFCURVE",
"751 -133 CURVE SMOOTH",
"674 -178 OFFCURVE",
"591 -200 OFFCURVE",
"500 -200 CURVE SMOOTH",
"319 -200 OFFCURVE",
"156 -104 OFFCURVE",
"67 49 CURVE SMOOTH",
"22 126 OFFCURVE",
"0 209 OFFCURVE",
"0 300 CURVE SMOOTH",
"0 481 OFFCURVE",
"96 644 OFFCURVE",
"249 733 CURVE SMOOTH",
"326 778 OFFCURVE",
"409 800 OFFCURVE",
"500 800 CURVE SMOOTH",
"681 800 OFFCURVE",
"844 704 OFFCURVE",
"933 551 CURVE SMOOTH"
);
}
);
width = 1000;
}
);
unicode = 002D;
},
{
glyphname = asciitilde;
layers = (
{
layerId = "8EDAA7A7-1AFB-42B2-BF34-013D0EB3C3CC";
name = Regular;
paths = (
{
closed = 1;
nodes = (
"412 360 LINE",
"515 360 LINE",
"353 625 LINE",
"191 360 LINE",
"294 360 LINE",
"294 66 LINE",
"412 66 LINE"
);
},
{
closed = 1;
nodes = (
"647 7 LINE",
"809 243 LINE",
"706 243 LINE",
"706 536 LINE",
"588 536 LINE",
"588 243 LINE",
"485 243 LINE"
);
},
{
closed = 1;
nodes = (
"978 475 OFFCURVE",
"1000 392 OFFCURVE",
"1000 301 CURVE SMOOTH",
"1000 120 OFFCURVE",
"904 -43 OFFCURVE",
"751 -132 CURVE SMOOTH",
"674 -177 OFFCURVE",
"591 -199 OFFCURVE",
"500 -199 CURVE SMOOTH",
"319 -199 OFFCURVE",
"156 -103 OFFCURVE",
"67 50 CURVE SMOOTH",
"22 127 OFFCURVE",
"0 210 OFFCURVE",
"0 301 CURVE SMOOTH",
"0 482 OFFCURVE",
"96 645 OFFCURVE",
"249 734 CURVE SMOOTH",
"326 779 OFFCURVE",
"409 801 OFFCURVE",
"500 801 CURVE SMOOTH",
"681 801 OFFCURVE",
"844 705 OFFCURVE",
"933 552 CURVE SMOOTH"
);
}
);
width = 1000;
}
);
unicode = 007E;
},
{
glyphname = greater;
layers = (
{
layerId = "8EDAA7A7-1AFB-42B2-BF34-013D0EB3C3CC";
name = Regular;
paths = (
{
closed = 1;
nodes = (
"154 800 LINE",
"654 300 LINE",
"154 -200 LINE",
"0 -46 LINE",
"346 300 LINE",
"0 646 LINE"
);
}
);
width = 654;
}
);
unicode = 003E;
},
{
glyphname = less;
layers = (
{
layerId = "8EDAA7A7-1AFB-42B2-BF34-013D0EB3C3CC";
name = Regular;
paths = (
{
closed = 1;
nodes = (
"308 300 LINE",
"654 -46 LINE",
"500 -200 LINE",
"0 300 LINE",
"500 800 LINE",
"654 646 LINE"
);
}
);
width = 654;
}
);
unicode = 003C;
},
{
glyphname = multiply;
layers = (
{
layerId = "8EDAA7A7-1AFB-42B2-BF34-013D0EB3C3CC";
name = Regular;
paths = (
{
closed = 1;
nodes = (
"661 68 LINE",
"732 139 LINE",
"571 300 LINE",
"732 461 LINE",
"661 532 LINE",
"500 371 LINE",
"339 532 LINE",
"268 461 LINE",
"429 300 LINE",
"268 139 LINE",
"339 68 LINE",
"500 229 LINE"
);
},
{
closed = 1;
nodes = (
"978 474 OFFCURVE",
"1000 391 OFFCURVE",
"1000 300 CURVE SMOOTH",
"1000 119 OFFCURVE",
"904 -44 OFFCURVE",
"751 -133 CURVE SMOOTH",
"674 -178 OFFCURVE",
"591 -200 OFFCURVE",
"500 -200 CURVE SMOOTH",
"319 -200 OFFCURVE",
"156 -104 OFFCURVE",
"67 49 CURVE SMOOTH",
"22 126 OFFCURVE",
"0 209 OFFCURVE",
"0 300 CURVE SMOOTH",
"0 481 OFFCURVE",
"96 644 OFFCURVE",
"249 733 CURVE SMOOTH",
"326 778 OFFCURVE",
"409 800 OFFCURVE",
"500 800 CURVE SMOOTH",
"681 800 OFFCURVE",
"844 704 OFFCURVE",
"933 551 CURVE SMOOTH"
);
}
);
width = 1000;
}
);
unicode = 00D7;
},
{
glyphname = percent;
layers = (
{
layerId = "8EDAA7A7-1AFB-42B2-BF34-013D0EB3C3CC";
name = Regular;
paths = (
{
closed = 1;
nodes = (
"306 -32 LINE",
"467 -200 LINE",
"0 -200 LINE",
"0 267 LINE",
"168 106 LINE",
"329 267 LINE SMOOTH",
"348 286 OFFCURVE",
"371 296 OFFCURVE",
"398 296 CURVE SMOOTH",
"451 296 OFFCURVE",
"496 251 OFFCURVE",
"496 198 CURVE SMOOTH",
"496 171 OFFCURVE",
"486 148 OFFCURVE",
"467 129 CURVE SMOOTH"
);
},
{
closed = 1;
nodes = (
"1000 800 LINE",
"1000 333 LINE",
"832 494 LINE",
"671 333 LINE SMOOTH",
"652 314 OFFCURVE",
"629 304 OFFCURVE",
"602 304 CURVE SMOOTH",
"549 304 OFFCURVE",
"504 349 OFFCURVE",
"504 402 CURVE SMOOTH",
"504 429 OFFCURVE",
"514 452 OFFCURVE",
"533 471 CURVE SMOOTH",
"694 632 LINE",
"533 800 LINE"
);
}
);
width = 1000;
}
);
unicode = 0025;
},
{
glyphname = plus;
layers = (
{
layerId = "8EDAA7A7-1AFB-42B2-BF34-013D0EB3C3CC";
name = Regular;
paths = (
{
closed = 1;
nodes = (
"560 242 LINE",
"795 242 LINE",
"795 360 LINE",
"560 360 LINE",
"560 595 LINE",
"442 595 LINE",
"442 360 LINE",
"206 360 LINE",
"206 242 LINE",
"442 242 LINE",
"442 6 LINE",
"560 6 LINE"
);
},
{
closed = 1;
nodes = (
"978 474 OFFCURVE",
"1000 391 OFFCURVE",
"1000 300 CURVE SMOOTH",
"1000 119 OFFCURVE",
"904 -44 OFFCURVE",
"751 -133 CURVE SMOOTH",
"674 -178 OFFCURVE",
"591 -200 OFFCURVE",
"500 -200 CURVE SMOOTH",
"319 -200 OFFCURVE",
"156 -104 OFFCURVE",
"67 49 CURVE SMOOTH",
"22 126 OFFCURVE",
"0 209 OFFCURVE",
"0 300 CURVE SMOOTH",
"0 481 OFFCURVE",
"96 644 OFFCURVE",
"249 733 CURVE SMOOTH",
"326 778 OFFCURVE",
"409 800 OFFCURVE",
"500 800 CURVE SMOOTH",
"681 800 OFFCURVE",
"844 704 OFFCURVE",
"933 551 CURVE SMOOTH"
);
}
);
width = 1000;
}
);
unicode = 002B;
},
{
glyphname = ampersand;
layers = (
{
layerId = "8EDAA7A7-1AFB-42B2-BF34-013D0EB3C3CC";
name = Regular;
paths = (
{
closed = 1;
nodes = (
"644 382 LINE",
"760 280 LINE",
"760 560 LINE",
"480 560 LINE",
"582 444 LINE",
"569 431 LINE",
"356 218 LINE",
"240 320 LINE",
"240 40 LINE",
"520 40 LINE",
"418 156 LINE"
);
},
{
closed = 1;
nodes = (
"978 474 OFFCURVE",
"1000 391 OFFCURVE",
"1000 300 CURVE SMOOTH",
"1000 119 OFFCURVE",
"904 -44 OFFCURVE",
"751 -133 CURVE SMOOTH",
"674 -178 OFFCURVE",
"591 -200 OFFCURVE",
"500 -200 CURVE SMOOTH",
"319 -200 OFFCURVE",
"156 -104 OFFCURVE",
"67 49 CURVE SMOOTH",
"22 126 OFFCURVE",
"0 209 OFFCURVE",
"0 300 CURVE SMOOTH",
"0 481 OFFCURVE",
"96 644 OFFCURVE",
"249 733 CURVE SMOOTH",
"326 778 OFFCURVE",
"409 800 OFFCURVE",
"500 800 CURVE SMOOTH",
"681 800 OFFCURVE",
"844 704 OFFCURVE",
"933 551 CURVE SMOOTH"
);
}
);
width = 1000;
}
);
unicode = 0026;
},
{
glyphname = at;
layers = (
{
layerId = "8EDAA7A7-1AFB-42B2-BF34-013D0EB3C3CC";
name = Regular;
paths = (
{
closed = 1;
nodes = (
"157 -42 LINE",
"1205 -42 LINE",
"1205 516 LINE",
"711 104 LINE",
"650 104 LINE",
"157 516 LINE"
);
},
{
closed = 1;
nodes = (
"174 639 LINE",
"681 216 LINE",
"1188 639 LINE"
);
},
{
closed = 1;
nodes = (
"1257 796 LINE SMOOTH",
"1314 796 OFFCURVE",
"1362 748 OFFCURVE",
"1362 691 CURVE SMOOTH",
"1362 -94 LINE SMOOTH",
"1362 -153 OFFCURVE",
"1314 -199 OFFCURVE",
"1257 -199 CURVE SMOOTH",
"105 -199 LINE SMOOTH",
"48 -199 OFFCURVE",
"0 -153 OFFCURVE",
"0 -94 CURVE SMOOTH",
"0 691 LINE SMOOTH",
"0 748 OFFCURVE",
"48 796 OFFCURVE",
"105 796 CURVE SMOOTH"
);
}
);
width = 1360;
}
);
unicode = 0040;
},
{
glyphname = grave;
layers = (
{
anchors = (
{
name = _top;
position = "{500, 800}";
}
);
layerId = "8EDAA7A7-1AFB-42B2-BF34-013D0EB3C3CC";
name = Regular;
paths = (
{
closed = 1;
nodes = (
"706 241 LINE",
"706 359 LINE",
"848 359 LINE",
"823 506 OFFCURVE",
"706 623 OFFCURVE",
"559 648 CURVE",
"559 506 LINE",
"441 506 LINE",
"441 648 LINE",
"294 623 OFFCURVE",
"177 506 OFFCURVE",
"152 359 CURVE",
"294 359 LINE",
"294 241 LINE",
"152 241 LINE",
"177 94 OFFCURVE",
"294 -23 OFFCURVE",
"441 -48 CURVE",
"441 94 LINE",
"559 94 LINE",
"559 -48 LINE",
"706 -23 OFFCURVE",
"823 94 OFFCURVE",
"848 241 CURVE"
);
},
{
closed = 1;
nodes = (
"978 474 OFFCURVE",
"1000 391 OFFCURVE",
"1000 300 CURVE SMOOTH",
"1000 119 OFFCURVE",
"904 -44 OFFCURVE",
"751 -133 CURVE SMOOTH",
"674 -178 OFFCURVE",
"591 -200 OFFCURVE",
"500 -200 CURVE SMOOTH",
"319 -200 OFFCURVE",
"156 -104 OFFCURVE",
"67 49 CURVE SMOOTH",
"22 126 OFFCURVE",
"0 209 OFFCURVE",
"0 300 CURVE SMOOTH",
"0 481 OFFCURVE",
"96 644 OFFCURVE",
"249 733 CURVE SMOOTH",
"326 778 OFFCURVE",
"409 800 OFFCURVE",
"500 800 CURVE SMOOTH",
"681 800 OFFCURVE",
"844 704 OFFCURVE",
"933 551 CURVE SMOOTH"
);
}
);
width = 1000;
}
);
unicode = 0060;
},
{
glyphname = uniE000;
layers = (
{
layerId = "8EDAA7A7-1AFB-42B2-BF34-013D0EB3C3CC";
name = Regular;
paths = (
{
closed = 1;
nodes = (
"0 740 LINE",
"740 740 LINE",
"740 0 LINE",
"0 0 LINE"
);
}
